<?xml version="1.0" encoding="UTF-8" standalone="no"?>
<!DOCTYPE svg PUBLIC "-//W3C//DTD SVG 1.1//EN"
 "http://www.w3.org/Graphics/SVG/1.1/DTD/svg11.dtd">
<!-- Generated by graphviz version 12.2.1 (20241206.2353)
 -->
<!-- Pages: 1 -->
<svg width="1789pt" height="592pt"
 viewBox="0.00 0.00 1789.07 591.60" xmlns="http://www.w3.org/2000/svg" xmlns:xlink="http://www.w3.org/1999/xlink">
<g id="graph0" class="graph" transform="scale(1 1) rotate(0) translate(4 587.6)">
<polygon fill="white" stroke="none" points="-4,4 -4,-587.6 1785.07,-587.6 1785.07,4 -4,4"/>
<g id="a_graph0_3"><a xlink:href="../../overflow-test.svg" xlink:title="&lt;TABLE&gt;">
<text text-anchor="start" x="711.12" y="-571.6" font-family="Helvetica,sans-Serif" text-decoration="underline" font-size="10.00" fill="#666666">Vehicle Platform</text>
</a>
</g>
<text text-anchor="start" x="802.49" y="-570.6" font-family="Helvetica,sans-Serif" font-size="10.00" fill="#666666">→</text>
<g id="a_graph0_4"><a xlink:href="../vehiclePlatform.svg" xlink:title="&lt;TABLE&gt;">
<text text-anchor="start" x="829.39" y="-571.6" font-family="Helvetica,sans-Serif" text-decoration="underline" font-size="10.00" fill="#666666">Vehicle Platform</text>
</a>
</g>
<text text-anchor="start" x="920.76" y="-570.6" font-family="Helvetica,sans-Serif" font-size="10.00" fill="#666666">→</text>
<text text-anchor="start" x="947.66" y="-570.6" font-family="Helvetica,sans-Serif" font-size="10.00" fill="#666666">PerceptionProcessingStack</text>
<text text-anchor="start" x="701.84" y="-555" font-family="Helvetica,sans-Serif" font-size="14.00">Vehicle Platform &#45; PerceptionProcessingStack &#45; Components</text>
<g id="clust1" class="cluster">
<title>cluster_vehiclePlatform.perceptionStack</title>
<path fill="none" stroke="#3c7fc0" d="M20,-8C20,-8 981,-8 981,-8 987,-8 993,-14 993,-20 993,-20 993,-381.6 993,-381.6 993,-387.6 987,-393.6 981,-393.6 981,-393.6 20,-393.6 20,-393.6 14,-393.6 8,-387.6 8,-381.6 8,-381.6 8,-20 8,-20 8,-14 14,-8 20,-8"/>
<text text-anchor="start" x="426.59" y="-378" font-family="Helvetica,sans-Serif" font-weight="bold" font-size="14.00" fill="#3c7fc0">PerceptionProcessing</text>
<text text-anchor="start" x="481.82" y="-364" font-family="Helvetica,sans-Serif" font-weight="bold" font-size="14.00" fill="#3c7fc0">Stack</text>
<text text-anchor="start" x="464.32" y="-349" font-family="Helvetica,sans-Serif" font-size="14.00" fill="#3c7fc0">Multi&#45;modal</text>
<text text-anchor="start" x="447.19" y="-332.2" font-family="Helvetica,sans-Serif" font-size="14.00" fill="#3c7fc0">perception fusion</text>
<text text-anchor="start" x="441.35" y="-315.4" font-family="Helvetica,sans-Serif" font-size="14.00" fill="#3c7fc0">for object detection</text>
</g>
<!-- vehiclePlatform.sensorProcessing -->
<g id="node1" class="node">
<title>vehiclePlatform.sensorProcessing</title>
<g id="a_node1"><a xlink:href="sensorProcessing.svg" xlink:title="&lt;TABLE&gt;">
<path fill="none" stroke="#3c7fc0" d="M1072.25,-546.8C1072.25,-546.8 927.75,-546.8 927.75,-546.8 921.75,-546.8 915.75,-540.8 915.75,-534.8 915.75,-534.8 915.75,-455.6 915.75,-455.6 915.75,-449.6 921.75,-443.6 927.75,-443.6 927.75,-443.6 1072.25,-443.6 1072.25,-443.6 1078.25,-443.6 1084.25,-449.6 1084.25,-455.6 1084.25,-455.6 1084.25,-534.8 1084.25,-534.8 1084.25,-540.8 1078.25,-546.8 1072.25,-546.8"/>
<text text-anchor="start" x="923.75" y="-531.2" font-family="Helvetica,sans-Serif" font-weight="bold" font-size="14.00" fill="#3c7fc0">SensorProcessingPipe</text>
<text text-anchor="start" x="978.22" y="-517.2" font-family="Helvetica,sans-Serif" font-weight="bold" font-size="14.00" fill="#3c7fc0">line 🔍</text>
<text text-anchor="start" x="938.14" y="-502.2" font-family="Helvetica,sans-Serif" font-size="14.00" fill="#3c7fc0">Handles raw sensor</text>
<text text-anchor="start" x="949.41" y="-485.4" font-family="Helvetica,sans-Serif" font-size="14.00" fill="#3c7fc0">data acquisition,</text>
<text text-anchor="start" x="942.41" y="-468.6" font-family="Helvetica,sans-Serif" font-size="14.00" fill="#3c7fc0">preprocessing and</text>
<text text-anchor="start" x="968.09" y="-451.8" font-family="Helvetica,sans-Serif" font-size="14.00" fill="#3c7fc0">calibration</text>
</a>
</g>
</g>
<!-- vehiclePlatform.perceptionStack.objectDetector -->
<g id="node2" class="node">
<title>vehiclePlatform.perceptionStack.objectDetector</title>
<path fill="none" stroke="#78a8d8" d="M310.4,-299.2C310.4,-299.2 163.6,-299.2 163.6,-299.2 157.6,-299.2 151.6,-293.2 151.6,-287.2 151.6,-287.2 151.6,-208 151.6,-208 151.6,-202 157.6,-196 163.6,-196 163.6,-196 310.4,-196 310.4,-196 316.4,-196 322.4,-202 322.4,-208 322.4,-208 322.4,-287.2 322.4,-287.2 322.4,-293.2 316.4,-299.2 310.4,-299.2"/>
<text text-anchor="start" x="159.6" y="-283.6" font-family="Helvetica,sans-Serif" font-weight="bold" font-size="14.00" fill="#78a8d8">LidarCameraFusionObj</text>
<text text-anchor="start" x="198.49" y="-269.6" font-family="Helvetica,sans-Serif" font-weight="bold" font-size="14.00" fill="#78a8d8">ectDetector</text>
<text text-anchor="start" x="185.64" y="-254.6" font-family="Helvetica,sans-Serif" font-size="14.00" fill="#78a8d8">Fuses lidar point</text>
<text text-anchor="start" x="177.09" y="-237.8" font-family="Helvetica,sans-Serif" font-size="14.00" fill="#78a8d8">clouds with camera</text>
<text text-anchor="start" x="172.8" y="-221" font-family="Helvetica,sans-Serif" font-size="14.00" fill="#78a8d8">images for 3D object</text>
<text text-anchor="start" x="208.59" y="-204.2" font-family="Helvetica,sans-Serif" font-size="14.00" fill="#78a8d8">detection</text>
</g>
<!-- vehiclePlatform.sensorProcessing&#45;&gt;vehiclePlatform.perceptionStack.objectDetector -->
<g id="edge3" class="edge">
<title>vehiclePlatform.sensorProcessing&#45;&gt;vehiclePlatform.perceptionStack.objectDetector</title>
<path fill="none" stroke="#3c7fc0" d="M915.46,-492.87C726.48,-489.01 282.82,-474.77 237.7,-425.6 209.9,-395.31 210.97,-348.33 218.32,-310.39"/>
<polygon fill="#3c7fc0" stroke="#3c7fc0" points="221.68,-311.43 220.34,-300.92 214.83,-309.97 221.68,-311.43"/>
<text text-anchor="middle" x="611.85" y="-416.6" font-family="Helvetica,sans-Serif" font-size="10.00" fill="#3c7fc0">[CGF Channel Multi&#45;Consumer Broadcast Pipeline with Zero&#45;Copy DMA Transfer and Temporal Synchronization]</text>
<text text-anchor="middle" x="611.85" y="-404.6" font-family="Helvetica,sans-Serif" font-size="10.00" fill="#3c7fc0">IMAGE_NATIVE_PROCESSED_CUDA_YUV420&#45;&gt;EXTERNAL:PERCEPTION_CAMERA_SENSOR0_FISHEYE0_CUDA_PROCESSED_RECTIFIED:dwImageHandle_t</text>
</g>
<!-- vehiclePlatform.perceptionStack.sceneClassifier -->
<g id="node3" class="node">
<title>vehiclePlatform.perceptionStack.sceneClassifier</title>
<path fill="none" stroke="#78a8d8" d="M481.53,-136C481.53,-136 342.47,-136 342.47,-136 336.47,-136 330.47,-130 330.47,-124 330.47,-124 330.47,-28 330.47,-28 330.47,-22 336.47,-16 342.47,-16 342.47,-16 481.53,-16 481.53,-16 487.53,-16 493.53,-22 493.53,-28 493.53,-28 493.53,-124 493.53,-124 493.53,-130 487.53,-136 481.53,-136"/>
<text text-anchor="start" x="338.47" y="-120.4" font-family="Helvetica,sans-Serif" font-weight="bold" font-size="14.00" fill="#78a8d8">DrivableSpaceGridCla</text>
<text text-anchor="start" x="391.38" y="-106.4" font-family="Helvetica,sans-Serif" font-weight="bold" font-size="14.00" fill="#78a8d8">ssifier</text>
<text text-anchor="start" x="366.09" y="-91.4" font-family="Helvetica,sans-Serif" font-size="14.00" fill="#78a8d8">Classifies road</text>
<text text-anchor="start" x="375.81" y="-74.6" font-family="Helvetica,sans-Serif" font-size="14.00" fill="#78a8d8">surface into</text>
<text text-anchor="start" x="373.86" y="-57.8" font-family="Helvetica,sans-Serif" font-size="14.00" fill="#78a8d8">drivable and</text>
<text text-anchor="start" x="359.86" y="-41" font-family="Helvetica,sans-Serif" font-size="14.00" fill="#78a8d8">non&#45;drivable grid</text>
<text text-anchor="start" x="398" y="-24.2" font-family="Helvetica,sans-Serif" font-size="14.00" fill="#78a8d8">cells</text>
</g>
<!-- vehiclePlatform.sensorProcessing&#45;&gt;vehiclePlatform.perceptionStack.sceneClassifier -->
<g id="edge4" class="edge">
<title>vehiclePlatform.sensorProcessing&#45;&gt;vehiclePlatform.perceptionStack.sceneClassifier</title>
<path fill="none" stroke="#3c7fc0" d="M999.68,-443.3C998.85,-350.91 995.95,-164.14 986,-154 962.77,-130.32 720.87,-140.48 688,-136 626.47,-127.61 558.22,-113.07 504.98,-100.52"/>
<polygon fill="#3c7fc0" stroke="#3c7fc0" points="505.87,-97.14 495.33,-98.23 504.25,-103.95 505.87,-97.14"/>
<text text-anchor="middle" x="1182.86" y="-250.6" font-family="Helvetica,sans-Serif" font-size="10.00" fill="#3c7fc0">[CGF Channel Filtered Pipeline]</text>
<text text-anchor="middle" x="1182.86" y="-238.6" font-family="Helvetica,sans-Serif" font-size="10.00" fill="#3c7fc0">IMAGE_NATIVE_PROCESSED &#45;&gt; DRIVABLE_SPACE_INPUT :dwImageHandle_t</text>
</g>
<!-- vehiclePlatform.perceptionStack.trackingModule -->
<g id="node4" class="node">
<title>vehiclePlatform.perceptionStack.trackingModule</title>
<path fill="none" stroke="#78a8d8" d="M844.96,-127.6C844.96,-127.6 709.04,-127.6 709.04,-127.6 703.04,-127.6 697.04,-121.6 697.04,-115.6 697.04,-115.6 697.04,-36.4 697.04,-36.4 697.04,-30.4 703.04,-24.4 709.04,-24.4 709.04,-24.4 844.96,-24.4 844.96,-24.4 850.96,-24.4 856.96,-30.4 856.96,-36.4 856.96,-36.4 856.96,-115.6 856.96,-115.6 856.96,-121.6 850.96,-127.6 844.96,-127.6"/>
<text text-anchor="start" x="705.04" y="-112" font-family="Helvetica,sans-Serif" font-weight="bold" font-size="14.00" fill="#78a8d8">MultiObjectTrackingS</text>
<text text-anchor="start" x="732.27" y="-98" font-family="Helvetica,sans-Serif" font-weight="bold" font-size="14.00" fill="#78a8d8">tateEstimator</text>
<text text-anchor="start" x="717.86" y="-83" font-family="Helvetica,sans-Serif" font-size="14.00" fill="#78a8d8">Maintains temporal</text>
<text text-anchor="start" x="719.03" y="-66.2" font-family="Helvetica,sans-Serif" font-size="14.00" fill="#78a8d8">object tracks using</text>
<text text-anchor="start" x="722.52" y="-49.4" font-family="Helvetica,sans-Serif" font-size="14.00" fill="#78a8d8">extended Kalman</text>
<text text-anchor="start" x="754.43" y="-32.6" font-family="Helvetica,sans-Serif" font-size="14.00" fill="#78a8d8">filtering</text>
</g>
<!-- vehiclePlatform.sensorProcessing&#45;&gt;vehiclePlatform.perceptionStack.trackingModule -->
<g id="edge5" class="edge">
<title>vehiclePlatform.sensorProcessing&#45;&gt;vehiclePlatform.perceptionStack.trackingModule</title>
<path fill="none" stroke="#3c7fc0" d="M1084.73,-483.25C1183.38,-468.56 1337.28,-438.96 1372,-393.6 1425.38,-323.86 1427.68,-263.92 1372,-196 1309.37,-119.6 1019.13,-91.27 868.42,-81.59"/>
<polygon fill="#3c7fc0" stroke="#3c7fc0" points="869.08,-78.12 858.88,-80.99 868.64,-85.11 869.08,-78.12"/>
<text text-anchor="middle" x="1596.98" y="-250.6" font-family="Helvetica,sans-Serif" font-size="10.00" fill="#3c7fc0">[CGF Channel Temporal Buffer]</text>
<text text-anchor="middle" x="1596.98" y="-238.6" font-family="Helvetica,sans-Serif" font-size="10.00" fill="#3c7fc0">IMAGE_NATIVE_PROCESSED &#45;&gt; TRACKING_IMAGE_INPUT :dwImageHandle_t</text>
</g>
<!-- vehiclePlatform.perceptionStack.objectDetector&#45;&gt;vehiclePlatform.perceptionStack.sceneClassifier -->
<g id="edge1" class="edge">
<title>vehiclePlatform.perceptionStack.objectDetector&#45;&gt;vehiclePlatform.perceptionStack.sceneClassifier</title>
<path fill="none" stroke="#78a8d8" d="M151.24,-236.58C80.36,-224.79 -2.93,-200.6 35.12,-154 70.29,-110.91 219.27,-91.3 319.05,-82.85"/>
<polygon fill="#78a8d8" stroke="#78a8d8" points="319.17,-86.35 328.85,-82.05 318.6,-79.37 319.17,-86.35"/>
<text text-anchor="middle" x="331.06" y="-169" font-family="Helvetica,sans-Serif" font-size="10.00" fill="#78a8d8">[dwframework::dwBaseDrainerTemplate&lt;dwObjectArray_t&gt;::CGFNodeChannelPacketFingerprint_v2::FUSED_DETECTIONS_CUDA]</text>
<text text-anchor="middle" x="331.06" y="-157" font-family="Helvetica,sans-Serif" font-size="10.00" fill="#78a8d8">FUSED_DETECTIONS&#45;&gt;DRIVABLE_SPACE_OBSTACLE_OVERLAY:dwObjectArray_t</text>
</g>
<!-- vehiclePlatform.perceptionStack.objectDetector&#45;&gt;vehiclePlatform.perceptionStack.trackingModule -->
<g id="edge2" class="edge">
<title>vehiclePlatform.perceptionStack.objectDetector&#45;&gt;vehiclePlatform.perceptionStack.trackingModule</title>
<path fill="none" stroke="#78a8d8" d="M322.73,-241.8C403.68,-234.92 527.22,-218.24 627,-178 653.99,-167.11 681.1,-150.87 704.71,-134.58"/>
<polygon fill="#78a8d8" stroke="#78a8d8" points="706.51,-137.58 712.67,-128.97 702.48,-131.86 706.51,-137.58"/>
<text text-anchor="middle" x="839.18" y="-169" font-family="Helvetica,sans-Serif" font-size="10.00" fill="#78a8d8">[CGF Channel Low&#45;Latency Pipeline]</text>
<text text-anchor="middle" x="839.18" y="-157" font-family="Helvetica,sans-Serif" font-size="10.00" fill="#78a8d8">DETECTED_OBJECTS &#45;&gt; TRACKING_OBSERVATIONS :dwObjectArray_t</text>
</g>
</g>
</svg>
