<?xml version="1.0" encoding="UTF-8" standalone="no"?>
<!DOCTYPE svg PUBLIC "-//W3C//DTD SVG 1.1//EN"
 "http://www.w3.org/Graphics/SVG/1.1/DTD/svg11.dtd">
<!-- Generated by graphviz version 15.1.1 (20260805.0921)
 -->
<!-- Pages: 1 -->
<svg width="578pt" height="898pt"
 viewBox="0.00 0.00 578.00 898.00" xmlns="http://www.w3.org/2000/svg" xmlns:xlink="http://www.w3.org/1999/xlink">
<g id="graph0" class="graph" transform="scale(1 1) rotate(0) translate(4 894.4)">
<polygon fill="white" stroke="none" points="-4,4 -4,-894.4 574,-894.4 574,4 -4,4"/>
<g id="a_graph0_1"><a xlink:href="../../overflow-test.svg" xlink:title="&lt;TABLE&gt;">
<text xml:space="preserve" text-anchor="start" x="145.49" y="-878.4" font-family="Helvetica,sans-Serif" text-decoration="underline" font-size="10.00" fill="#666666">Vehicle Platform</text>
</a>
</g>
<text xml:space="preserve" text-anchor="start" x="218.3" y="-876.4" font-family="Helvetica,sans-Serif" font-size="10.00" fill="#666666">→</text>
<g id="a_graph0_2"><a xlink:href="../vehiclePlatform.svg" xlink:title="&lt;TABLE&gt;">
<text xml:space="preserve" text-anchor="start" x="226.63" y="-878.4" font-family="Helvetica,sans-Serif" text-decoration="underline" font-size="10.00" fill="#666666">Vehicle Platform</text>
</a>
</g>
<text xml:space="preserve" text-anchor="start" x="299.44" y="-876.4" font-family="Helvetica,sans-Serif" font-size="10.00" fill="#666666">→</text>
<text xml:space="preserve" text-anchor="start" x="307.78" y="-876.4" font-family="Helvetica,sans-Serif" font-size="10.00" fill="#666666">SensorProcessingPipeline</text>
<text xml:space="preserve" text-anchor="start" x="237.15" y="-860.4" font-family="Helvetica,sans-Serif" font-size="14.00">vehiclePlatform</text>
<g id="clust1" class="cluster">
<title>cluster_vehiclePlatform.sensorProcessing</title>
<path fill="none" stroke="#3c7fc0" d="M20,-214.4C20,-214.4 550,-214.4 550,-214.4 556,-214.4 562,-220.4 562,-226.4 562,-226.4 562,-833.6 562,-833.6 562,-839.6 556,-845.6 550,-845.6 550,-845.6 20,-845.6 20,-845.6 14,-845.6 8,-839.6 8,-833.6 8,-833.6 8,-226.4 8,-226.4 8,-220.4 14,-214.4 20,-214.4"/>
<text xml:space="preserve" text-anchor="start" x="196.69" y="-830" font-family="Helvetica,sans-Serif" font-weight="bold" font-size="14.00" fill="#3c7fc0">SensorProcessingPipeline</text>
<text xml:space="preserve" text-anchor="start" x="223.14" y="-810.8" font-family="Helvetica,sans-Serif" font-size="14.00" fill="#3c7fc0">Handles raw sensor</text>
<text xml:space="preserve" text-anchor="start" x="234.41" y="-794" font-family="Helvetica,sans-Serif" font-size="14.00" fill="#3c7fc0">data acquisition,</text>
<text xml:space="preserve" text-anchor="start" x="227.41" y="-777.2" font-family="Helvetica,sans-Serif" font-size="14.00" fill="#3c7fc0">preprocessing and</text>
<text xml:space="preserve" text-anchor="start" x="253.09" y="-760.4" font-family="Helvetica,sans-Serif" font-size="14.00" fill="#3c7fc0">calibration</text>
</g>
<!-- vehiclePlatform.perceptionStack -->
<g id="node1" class="node">
<title>vehiclePlatform.perceptionStack</title>
<g id="a_node1"><a xlink:href="perceptionStack.svg" xlink:title="&lt;TABLE&gt;">
<path fill="none" stroke="#3c7fc0" d="M394.59,-86.4C394.59,-86.4 217.41,-86.4 217.41,-86.4 211.41,-86.4 205.41,-80.4 205.41,-74.4 205.41,-74.4 205.41,-12 205.41,-12 205.41,-6 211.41,0 217.41,0 217.41,0 394.59,0 394.59,0 400.59,0 406.59,-6 406.59,-12 406.59,-12 406.59,-74.4 406.59,-74.4 406.59,-80.4 400.59,-86.4 394.59,-86.4"/>
<text xml:space="preserve" text-anchor="start" x="213.41" y="-70.8" font-family="Helvetica,sans-Serif" font-weight="bold" font-size="14.00" fill="#3c7fc0">PerceptionProcessingStack</text>
<text xml:space="preserve" text-anchor="start" x="298.22" y="-56.8" font-family="Helvetica,sans-Serif" font-weight="bold" font-size="14.00" fill="#3c7fc0">🔍</text>
<text xml:space="preserve" text-anchor="start" x="269.82" y="-40.4" font-family="Helvetica,sans-Serif" font-size="14.00" fill="#3c7fc0">Multi&#45;modal</text>
<text xml:space="preserve" text-anchor="start" x="252.69" y="-23.6" font-family="Helvetica,sans-Serif" font-size="14.00" fill="#3c7fc0">perception fusion</text>
<text xml:space="preserve" text-anchor="start" x="246.85" y="-6.8" font-family="Helvetica,sans-Serif" font-size="14.00" fill="#3c7fc0">for object detection</text>
</a>
</g>
</g>
<!-- vehiclePlatform.sensorProcessing.rawFrameDecoder -->
<g id="node2" class="node">
<title>vehiclePlatform.sensorProcessing.rawFrameDecoder</title>
<path fill="none" stroke="#78a8d8" d="M542.37,-541.2C542.37,-541.2 335.63,-541.2 335.63,-541.2 329.63,-541.2 323.63,-535.2 323.63,-529.2 323.63,-529.2 323.63,-478 323.63,-478 323.63,-472 329.63,-466 335.63,-466 335.63,-466 542.37,-466 542.37,-466 548.37,-466 554.37,-472 554.37,-478 554.37,-478 554.37,-529.2 554.37,-529.2 554.37,-535.2 548.37,-541.2 542.37,-541.2"/>
<text xml:space="preserve" text-anchor="start" x="331.63" y="-525.6" font-family="Helvetica,sans-Serif" font-weight="bold" font-size="14.00" fill="#78a8d8">RawBayerFrameDecoderModule</text>
<text xml:space="preserve" text-anchor="start" x="377.92" y="-506.4" font-family="Helvetica,sans-Serif" font-size="14.00" fill="#78a8d8">Decodes raw Bayer</text>
<text xml:space="preserve" text-anchor="start" x="380.64" y="-489.6" font-family="Helvetica,sans-Serif" font-size="14.00" fill="#78a8d8">pattern frames into</text>
<text xml:space="preserve" text-anchor="start" x="423.83" y="-472.8" font-family="Helvetica,sans-Serif" font-size="14.00" fill="#78a8d8">RGB</text>
</g>
<!-- vehiclePlatform.sensorProcessing.outputSelector -->
<g id="node4" class="node">
<title>vehiclePlatform.sensorProcessing.outputSelector</title>
<path fill="none" stroke="#78a8d8" d="M451.75,-353.6C451.75,-353.6 160.25,-353.6 160.25,-353.6 154.25,-353.6 148.25,-347.6 148.25,-341.6 148.25,-341.6 148.25,-234.4 148.25,-234.4 148.25,-228.4 154.25,-222.4 160.25,-222.4 160.25,-222.4 451.75,-222.4 451.75,-222.4 457.75,-222.4 463.75,-228.4 463.75,-234.4 463.75,-234.4 463.75,-341.6 463.75,-341.6 463.75,-347.6 457.75,-353.6 451.75,-353.6"/>
<text xml:space="preserve" text-anchor="start" x="240.66" y="-338" font-family="Helvetica,sans-Serif" font-weight="bold" font-size="14.00" fill="#78a8d8">outputSelectorIsp0.</text>
<text xml:space="preserve" text-anchor="start" x="212.26" y="-324" font-family="Helvetica,sans-Serif" font-weight="bold" font-size="14.00" fill="#78a8d8">CameraOutputSelectorNode</text>
<text xml:space="preserve" text-anchor="start" x="162.47" y="-310" font-family="Helvetica,sans-Serif" font-weight="bold" font-size="14.00" fill="#78a8d8">:CameraOutputSelectorDispatcherGraphlet</text>
<text xml:space="preserve" text-anchor="start" x="156.25" y="-296" font-family="Helvetica,sans-Serif" font-weight="bold" font-size="14.00" fill="#78a8d8">:FisheyeRectificationPipelineStageController</text>
<text xml:space="preserve" text-anchor="start" x="218.46" y="-279.6" font-family="Helvetica,sans-Serif" font-size="14.00" fill="#78a8d8">Routes processed frames to</text>
<text xml:space="preserve" text-anchor="start" x="233.24" y="-262.8" font-family="Helvetica,sans-Serif" font-size="14.00" fill="#78a8d8">downstream perception</text>
<text xml:space="preserve" text-anchor="start" x="227.79" y="-246" font-family="Helvetica,sans-Serif" font-size="14.00" fill="#78a8d8">consumers based on ISP</text>
<text xml:space="preserve" text-anchor="start" x="239.84" y="-229.2" font-family="Helvetica,sans-Serif" font-size="14.00" fill="#78a8d8">pipeline configuration</text>
</g>
<!-- vehiclePlatform.sensorProcessing.rawFrameDecoder&#45;&gt;vehiclePlatform.sensorProcessing.outputSelector -->
<g id="edge1" class="edge">
<title>vehiclePlatform.sensorProcessing.rawFrameDecoder&#45;&gt;vehiclePlatform.sensorProcessing.outputSelector</title>
<path fill="none" stroke="#78a8d8" d="M416.14,-465.88C398.62,-437.75 373.88,-398.01 352.28,-363.32"/>
<polygon fill="#78a8d8" stroke="#78a8d8" points="355.33,-361.61 347.08,-354.97 349.39,-365.31 355.33,-361.61"/>
<text xml:space="preserve" text-anchor="start" x="413.04" y="-431.6" font-family="Helvetica,sans-Serif" font-style="italic" font-size="10.00" fill="#78a8d8">[CGF Channel Zero&#45;</text>
<text xml:space="preserve" text-anchor="start" x="425.27" y="-421.6" font-family="Helvetica,sans-Serif" font-style="italic" font-size="10.00" fill="#78a8d8">Copy Transfer]</text>
<text xml:space="preserve" text-anchor="start" x="410.69" y="-409.6" font-family="Helvetica,sans-Serif" font-size="10.00" fill="#78a8d8">CAMERA_FRAME &#45;&gt;</text>
<text xml:space="preserve" text-anchor="start" x="416.66" y="-397.6" font-family="Helvetica,sans-Serif" font-size="10.00" fill="#78a8d8">CAMERA_FRAME</text>
<text xml:space="preserve" text-anchor="start" x="399.7" y="-385.6" font-family="Helvetica,sans-Serif" font-size="10.00" fill="#78a8d8">:dwCameraFrameHandle_</text>
<text xml:space="preserve" text-anchor="start" x="456.95" y="-373.6" font-family="Helvetica,sans-Serif" font-size="10.00" fill="#78a8d8">t</text>
</g>
<!-- vehiclePlatform.sensorProcessing.frameTimestampSync -->
<g id="node3" class="node">
<title>vehiclePlatform.sensorProcessing.frameTimestampSync</title>
<path fill="none" stroke="#78a8d8" d="M293.91,-549.6C293.91,-549.6 28.09,-549.6 28.09,-549.6 22.09,-549.6 16.09,-543.6 16.09,-537.6 16.09,-537.6 16.09,-469.6 16.09,-469.6 16.09,-463.6 22.09,-457.6 28.09,-457.6 28.09,-457.6 293.91,-457.6 293.91,-457.6 299.91,-457.6 305.91,-463.6 305.91,-469.6 305.91,-469.6 305.91,-537.6 305.91,-537.6 305.91,-543.6 299.91,-549.6 293.91,-549.6"/>
<text xml:space="preserve" text-anchor="start" x="24.09" y="-534" font-family="Helvetica,sans-Serif" font-weight="bold" font-size="14.00" fill="#78a8d8">FrameTimestampSynchronizationModule</text>
<text xml:space="preserve" text-anchor="start" x="99.14" y="-514.8" font-family="Helvetica,sans-Serif" font-size="14.00" fill="#78a8d8">Synchronizes frame</text>
<text xml:space="preserve" text-anchor="start" x="102.65" y="-498" font-family="Helvetica,sans-Serif" font-size="14.00" fill="#78a8d8">timestamps across</text>
<text xml:space="preserve" text-anchor="start" x="111.59" y="-481.2" font-family="Helvetica,sans-Serif" font-size="14.00" fill="#78a8d8">multiple camera</text>
<text xml:space="preserve" text-anchor="start" x="136.49" y="-464.4" font-family="Helvetica,sans-Serif" font-size="14.00" fill="#78a8d8">sensors</text>
</g>
<!-- vehiclePlatform.sensorProcessing.frameTimestampSync&#45;&gt;vehiclePlatform.sensorProcessing.outputSelector -->
<g id="edge3" class="edge">
<title>vehiclePlatform.sensorProcessing.frameTimestampSync&#45;&gt;vehiclePlatform.sensorProcessing.outputSelector</title>
<path fill="none" stroke="#78a8d8" d="M191.75,-457.3C210.29,-429.99 234.35,-394.55 255.61,-363.23"/>
<polygon fill="#78a8d8" stroke="#78a8d8" points="258.24,-365.59 260.96,-355.35 252.45,-361.65 258.24,-365.59"/>
<text xml:space="preserve" text-anchor="start" x="266.21" y="-430.6" font-family="Helvetica,sans-Serif" font-style="italic" font-size="10.00" fill="#78a8d8">[CGF Channel</text>
<text xml:space="preserve" text-anchor="start" x="267.87" y="-420.6" font-family="Helvetica,sans-Serif" font-style="italic" font-size="10.00" fill="#78a8d8">Synchronized</text>
<text xml:space="preserve" text-anchor="start" x="278.98" y="-410.6" font-family="Helvetica,sans-Serif" font-style="italic" font-size="10.00" fill="#78a8d8">Pipeline]</text>
<text xml:space="preserve" text-anchor="start" x="251.07" y="-398.6" font-family="Helvetica,sans-Serif" font-size="10.00" fill="#78a8d8">SYNCED_FRAME &#45;&gt;</text>
<text xml:space="preserve" text-anchor="start" x="246.49" y="-386.6" font-family="Helvetica,sans-Serif" font-size="10.00" fill="#78a8d8">PROCESSED_FRAME</text>
<text xml:space="preserve" text-anchor="start" x="256.47" y="-374.6" font-family="Helvetica,sans-Serif" font-size="10.00" fill="#78a8d8">:dwImageHandle_t</text>
</g>
<!-- vehiclePlatform.sensorProcessing.outputSelector&#45;&gt;vehiclePlatform.perceptionStack -->
<g id="edge4" class="edge">
<title>vehiclePlatform.sensorProcessing.outputSelector&#45;&gt;vehiclePlatform.perceptionStack</title>
<path fill="none" stroke="#78a8d8" stroke-width="2" d="M306,-221.93C306,-183.78 306,-136.08 306,-99.71"/>
<polygon fill="#78a8d8" stroke="#78a8d8" stroke-width="2" points="309.5,-99.88 306,-89.88 302.5,-99.88 309.5,-99.88"/>
<text xml:space="preserve" text-anchor="start" x="328.23" y="-196.4" font-family="Helvetica,sans-Serif" font-style="italic" font-size="10.00" fill="#78a8d8">[CGF Channel Multi&#45;Consumer</text>
<text xml:space="preserve" text-anchor="start" x="344.89" y="-186.4" font-family="Helvetica,sans-Serif" font-style="italic" font-size="10.00" fill="#78a8d8">Broadcast Pipeline with</text>
<text xml:space="preserve" text-anchor="start" x="331" y="-176.4" font-family="Helvetica,sans-Serif" font-style="italic" font-size="10.00" fill="#78a8d8">Zero&#45;Copy DMA Transfer and</text>
<text xml:space="preserve" text-anchor="start" x="337.39" y="-166.4" font-family="Helvetica,sans-Serif" font-style="italic" font-size="10.00" fill="#78a8d8">Temporal Synchronization]</text>
<text xml:space="preserve" text-anchor="start" x="306" y="-154.4" font-family="Helvetica,sans-Serif" font-size="10.00" fill="#78a8d8">IMAGE_NATIVE_PROCESSED_CUDA_</text>
<text xml:space="preserve" text-anchor="start" x="310.58" y="-142.4" font-family="Helvetica,sans-Serif" font-size="10.00" fill="#78a8d8">YUV420&#45;&gt;EXTERNAL:PERCEPTION_</text>
<text xml:space="preserve" text-anchor="start" x="319.05" y="-130.4" font-family="Helvetica,sans-Serif" font-size="10.00" fill="#78a8d8">CAMERA_SENSOR0_FISHEYE0_</text>
<text xml:space="preserve" text-anchor="start" x="317.96" y="-118.4" font-family="Helvetica,sans-Serif" font-size="10.00" fill="#78a8d8">CUDA_PROCESSED_RECTIFIED:</text>
<text xml:space="preserve" text-anchor="start" x="356.56" y="-106.4" font-family="Helvetica,sans-Serif" font-size="10.00" fill="#78a8d8">dwImageHandle_t</text>
</g>
<!-- vehiclePlatform.sensorProcessing.cameraFrameAcquisition -->
<g id="node5" class="node">
<title>vehiclePlatform.sensorProcessing.cameraFrameAcquisition</title>
<path fill="none" stroke="#78a8d8" d="M542.25,-745.6C542.25,-745.6 313.75,-745.6 313.75,-745.6 307.75,-745.6 301.75,-739.6 301.75,-733.6 301.75,-733.6 301.75,-665.6 301.75,-665.6 301.75,-659.6 307.75,-653.6 313.75,-653.6 313.75,-653.6 542.25,-653.6 542.25,-653.6 548.25,-653.6 554.25,-659.6 554.25,-665.6 554.25,-665.6 554.25,-733.6 554.25,-733.6 554.25,-739.6 548.25,-745.6 542.25,-745.6"/>
<text xml:space="preserve" text-anchor="start" x="309.75" y="-730" font-family="Helvetica,sans-Serif" font-weight="bold" font-size="14.00" fill="#78a8d8">CameraFrameAcquisitionController</text>
<text xml:space="preserve" text-anchor="start" x="362.26" y="-710.8" font-family="Helvetica,sans-Serif" font-size="14.00" fill="#78a8d8">Acquires raw camera</text>
<text xml:space="preserve" text-anchor="start" x="377.43" y="-694" font-family="Helvetica,sans-Serif" font-size="14.00" fill="#78a8d8">frames from ISP</text>
<text xml:space="preserve" text-anchor="start" x="370.42" y="-677.2" font-family="Helvetica,sans-Serif" font-size="14.00" fill="#78a8d8">hardware via DMA</text>
<text xml:space="preserve" text-anchor="start" x="396.48" y="-660.4" font-family="Helvetica,sans-Serif" font-size="14.00" fill="#78a8d8">ring buffer</text>
</g>
<!-- vehiclePlatform.sensorProcessing.cameraFrameAcquisition&#45;&gt;vehiclePlatform.sensorProcessing.rawFrameDecoder -->
<g id="edge2" class="edge">
<title>vehiclePlatform.sensorProcessing.cameraFrameAcquisition&#45;&gt;vehiclePlatform.sensorProcessing.rawFrameDecoder</title>
<path fill="none" stroke="#78a8d8" d="M430.58,-653.12C432.29,-623.03 434.52,-583.62 436.26,-552.96"/>
<polygon fill="#78a8d8" stroke="#78a8d8" points="439.74,-553.37 436.81,-543.19 432.75,-552.97 439.74,-553.37"/>
<text xml:space="preserve" text-anchor="start" x="449.31" y="-627.6" font-family="Helvetica,sans-Serif" font-style="italic" font-size="10.00" fill="#78a8d8">[CGF Channel DMA</text>
<text xml:space="preserve" text-anchor="start" x="473.76" y="-617.6" font-family="Helvetica,sans-Serif" font-style="italic" font-size="10.00" fill="#78a8d8">Transfer]</text>
<text xml:space="preserve" text-anchor="start" x="455.84" y="-605.6" font-family="Helvetica,sans-Serif" font-size="10.00" fill="#78a8d8">RAW_FRAME &#45;&gt;</text>
<text xml:space="preserve" text-anchor="start" x="437.37" y="-593.6" font-family="Helvetica,sans-Serif" font-size="10.00" fill="#78a8d8">TIMESTAMPED_FRAME</text>
<text xml:space="preserve" text-anchor="start" x="435.13" y="-581.6" font-family="Helvetica,sans-Serif" font-size="10.00" fill="#78a8d8">:dwCameraFrameHandle_</text>
<text xml:space="preserve" text-anchor="start" x="492.37" y="-569.6" font-family="Helvetica,sans-Serif" font-size="10.00" fill="#78a8d8">t</text>
</g>
</g>
</svg>
