<?xml version="1.0" encoding="UTF-8" standalone="no"?>
<!DOCTYPE svg PUBLIC "-//W3C//DTD SVG 1.1//EN"
 "http://www.w3.org/Graphics/SVG/1.1/DTD/svg11.dtd">
<!-- Generated by graphviz version 15.1.1 (20260805.0921)
 -->
<!-- Pages: 1 -->
<svg width="256pt" height="328pt"
 viewBox="0.00 0.00 256.00 328.00" xmlns="http://www.w3.org/2000/svg" xmlns:xlink="http://www.w3.org/1999/xlink">
<g id="graph0" class="graph" transform="scale(1 1) rotate(0) translate(4 324.4)">
<polygon fill="white" stroke="none" points="-4,4 -4,-324.4 252.29,-324.4 252.29,4 -4,4"/>
<g id="a_graph0_1"><a xlink:href="../../06-templates.svg" xlink:title="&lt;TABLE&gt;">
<text xml:space="preserve" text-anchor="start" x="10.77" y="-308.4" font-family="Helvetica,sans-Serif" text-decoration="underline" font-size="10.00" fill="#666666">Templates Example</text>
</a>
</g>
<text xml:space="preserve" text-anchor="start" x="99.14" y="-306.4" font-family="Helvetica,sans-Serif" font-size="10.00" fill="#666666">→</text>
<g id="a_graph0_2"><a xlink:href="../platform.svg" xlink:title="&lt;TABLE&gt;">
<text xml:space="preserve" text-anchor="start" x="107.48" y="-308.4" font-family="Helvetica,sans-Serif" text-decoration="underline" font-size="10.00" fill="#666666">Platform</text>
</a>
</g>
<text xml:space="preserve" text-anchor="start" x="144.71" y="-306.4" font-family="Helvetica,sans-Serif" font-size="10.00" fill="#666666">→</text>
<text xml:space="preserve" text-anchor="start" x="153.04" y="-306.4" font-family="Helvetica,sans-Serif" font-size="10.00" fill="#666666">users Data Service</text>
<text xml:space="preserve" text-anchor="start" x="98.86" y="-290.4" font-family="Helvetica,sans-Serif" font-size="14.00">platform</text>
<g id="clust1" class="cluster">
<title>cluster_platform.users</title>
<path fill="none" stroke="#3c7fc0" d="M20,-127.2C20,-127.2 140,-127.2 140,-127.2 146,-127.2 152,-133.2 152,-139.2 152,-139.2 152,-263.6 152,-263.6 152,-269.6 146,-275.6 140,-275.6 140,-275.6 20,-275.6 20,-275.6 14,-275.6 8,-269.6 8,-263.6 8,-263.6 8,-139.2 8,-139.2 8,-133.2 14,-127.2 20,-127.2"/>
<text xml:space="preserve" text-anchor="start" x="17.35" y="-260" font-family="Helvetica,sans-Serif" font-weight="bold" font-size="14.00" fill="#3c7fc0">users Data Service</text>
<text xml:space="preserve" text-anchor="start" x="66.77" y="-243.2" font-family="Helvetica,sans-Serif" font-style="italic" font-size="14.00" fill="#3c7fc0">[Go]</text>
<text xml:space="preserve" text-anchor="start" x="15.8" y="-224" font-family="Helvetica,sans-Serif" font-size="14.00" fill="#3c7fc0">users owns a private</text>
<text xml:space="preserve" text-anchor="start" x="61.32" y="-207.2" font-family="Helvetica,sans-Serif" font-size="14.00" fill="#3c7fc0">cache</text>
</g>
<!-- messageBus -->
<g id="node1" class="node">
<title>messageBus</title>
<path fill="none" stroke="#073b6f" d="M141.15,-75.2C141.15,-75.2 16.85,-75.2 16.85,-75.2 10.85,-75.2 4.85,-69.2 4.85,-63.2 4.85,-63.2 4.85,-12 4.85,-12 4.85,-6 10.85,0 16.85,0 16.85,0 141.15,0 141.15,0 147.15,0 153.15,-6 153.15,-12 153.15,-12 153.15,-63.2 153.15,-63.2 153.15,-69.2 147.15,-75.2 141.15,-75.2"/>
<text xml:space="preserve" text-anchor="start" x="32.32" y="-57.2" font-family="Helvetica,sans-Serif" font-size="14.00" fill="#073b6f">═╦╩═╦═══</text>
<text xml:space="preserve" text-anchor="start" x="34.26" y="-42.8" font-family="Helvetica,sans-Serif" font-weight="bold" font-size="14.00" fill="#073b6f">Message Bus</text>
<text xml:space="preserve" text-anchor="start" x="12.85" y="-23.6" font-family="Helvetica,sans-Serif" font-size="14.00" fill="#073b6f">Backbone for domain</text>
<text xml:space="preserve" text-anchor="start" x="26.46" y="-6.8" font-family="Helvetica,sans-Serif" font-size="14.00" fill="#073b6f">event publication</text>
</g>
<!-- platform.users.cache -->
<g id="node2" class="node">
<title>platform.users.cache</title>
<path fill="none" stroke="#78a8d8" d="M128.63,-187.2C128.63,-190.07 106.39,-192.4 79,-192.4 51.61,-192.4 29.37,-190.07 29.37,-187.2 29.37,-187.2 29.37,-140.4 29.37,-140.4 29.37,-137.53 51.61,-135.2 79,-135.2 106.39,-135.2 128.63,-137.53 128.63,-140.4 128.63,-140.4 128.63,-187.2 128.63,-187.2"/>
<path fill="none" stroke="#78a8d8" d="M128.63,-187.2C128.63,-184.33 106.39,-182 79,-182 51.61,-182 29.37,-184.33 29.37,-187.2"/>
<text xml:space="preserve" text-anchor="start" x="37.37" y="-169" font-family="Helvetica,sans-Serif" font-weight="bold" font-size="14.00" fill="#78a8d8">users Cache</text>
<text xml:space="preserve" text-anchor="start" x="57.21" y="-152.2" font-family="Helvetica,sans-Serif" font-style="italic" font-size="14.00" fill="#78a8d8">[Redis]</text>
</g>
<!-- platform.users.cache&#45;&gt;messageBus -->
<g id="edge1" class="edge">
<title>platform.users.cache&#45;&gt;messageBus</title>
<path fill="none" stroke="#78a8d8" d="M79,-134.93C79,-120.63 79,-102.82 79,-86.41"/>
<polygon fill="#78a8d8" stroke="#78a8d8" points="82.5,-86.85 79,-76.85 75.5,-86.85 82.5,-86.85"/>
<text xml:space="preserve" text-anchor="start" x="85.95" y="-107.2" font-family="Helvetica,sans-Serif" font-size="10.00" fill="#78a8d8">Publishes users</text>
<text xml:space="preserve" text-anchor="start" x="79" y="-95.2" font-family="Helvetica,sans-Serif" font-size="10.00" fill="#78a8d8">cache invalidations</text>
</g>
<!-- __c4drill_legend -->
<g id="node3" class="node">
<title>__c4drill_legend</title>
<text xml:space="preserve" text-anchor="start" x="168.71" y="-166.8" font-family="Helvetica,sans-Serif" font-size="10.00" fill="#073b6f">person / system</text>
<text xml:space="preserve" text-anchor="start" x="168.71" y="-152.8" font-family="Helvetica,sans-Serif" font-size="10.00" fill="#78a8d8">component</text>
</g>
</g>
</svg>
