<?xml version="1.0" encoding="UTF-8" standalone="no"?>
<!DOCTYPE svg PUBLIC "-//W3C//DTD SVG 1.1//EN"
 "http://www.w3.org/Graphics/SVG/1.1/DTD/svg11.dtd">
<!-- Generated by graphviz version 15.1.1 (20260805.0921)
 -->
<!-- Pages: 1 -->
<svg width="612pt" height="814pt"
 viewBox="0.00 0.00 612.00 814.00" xmlns="http://www.w3.org/2000/svg" xmlns:xlink="http://www.w3.org/1999/xlink">
<g id="graph0" class="graph" transform="scale(1 1) rotate(0) translate(4 809.6)">
<polygon fill="white" stroke="none" points="-4,4 -4,-809.6 608.19,-809.6 608.19,4 -4,4"/>
<text xml:space="preserve" text-anchor="start" x="258.52" y="-787.6" font-family="Helvetica,sans-Serif" font-size="14.00">Cloud System</text>
<g id="clust1" class="cluster">
<title>cluster_cloud</title>
<path fill="none" stroke="#073b6f" d="M20,-97.6C20,-97.6 158,-97.6 158,-97.6 164,-97.6 170,-103.6 170,-109.6 170,-109.6 170,-504.4 170,-504.4 170,-510.4 164,-516.4 158,-516.4 158,-516.4 20,-516.4 20,-516.4 14,-516.4 8,-510.4 8,-504.4 8,-504.4 8,-109.6 8,-109.6 8,-103.6 14,-97.6 20,-97.6"/>
<text xml:space="preserve" text-anchor="start" x="42.32" y="-500.8" font-family="Helvetica,sans-Serif" font-weight="bold" font-size="14.00" fill="#073b6f">Cloud System</text>
</g>
<g id="clust2" class="cluster">
<title>cluster_amazon</title>
<path fill="none" stroke="#073b6f" d="M190,-8C190,-8 482,-8 482,-8 488,-8 494,-14 494,-20 494,-20 494,-235.2 494,-235.2 494,-241.2 488,-247.2 482,-247.2 482,-247.2 190,-247.2 190,-247.2 184,-247.2 178,-241.2 178,-235.2 178,-235.2 178,-20 178,-20 178,-14 184,-8 190,-8"/>
<text xml:space="preserve" text-anchor="start" x="308.78" y="-231.6" font-family="Helvetica,sans-Serif" font-weight="bold" font-size="14.00" fill="#073b6f">Amazon</text>
<text xml:space="preserve" text-anchor="start" x="272.95" y="-212.4" font-family="Helvetica,sans-Serif" font-size="14.00" fill="#073b6f">Cloud and managed</text>
<text xml:space="preserve" text-anchor="start" x="283.09" y="-195.6" font-family="Helvetica,sans-Serif" font-size="14.00" fill="#073b6f">services provider</text>
</g>
<!-- customer -->
<g id="node1" class="node">
<title>customer</title>
<path fill="none" stroke="#073b6f" d="M158.03,-640.8C158.03,-640.8 33.97,-640.8 33.97,-640.8 27.97,-640.8 21.97,-634.8 21.97,-628.8 21.97,-628.8 21.97,-566.4 21.97,-566.4 21.97,-560.4 27.97,-554.4 33.97,-554.4 33.97,-554.4 158.03,-554.4 158.03,-554.4 164.03,-554.4 170.03,-560.4 170.03,-566.4 170.03,-566.4 170.03,-628.8 170.03,-628.8 170.03,-634.8 164.03,-640.8 158.03,-640.8"/>
<text xml:space="preserve" text-anchor="start" x="29.97" y="-584.8" font-family="Helvetica,sans-Serif" font-size="32.00" fill="#073b6f">👤</text>
<text xml:space="preserve" text-anchor="start" x="67.11" y="-625.2" font-family="Helvetica,sans-Serif" font-weight="bold" font-size="14.00" fill="#073b6f">Cloud System</text>
<text xml:space="preserve" text-anchor="start" x="81.11" y="-611.2" font-family="Helvetica,sans-Serif" font-weight="bold" font-size="14.00" fill="#073b6f">Customer</text>
<text xml:space="preserve" text-anchor="start" x="77.98" y="-594.8" font-family="Helvetica,sans-Serif" font-size="14.00" fill="#073b6f">The regular</text>
<text xml:space="preserve" text-anchor="start" x="65.54" y="-578" font-family="Helvetica,sans-Serif" font-size="14.00" fill="#073b6f">customer of the</text>
<text xml:space="preserve" text-anchor="start" x="91.61" y="-561.2" font-family="Helvetica,sans-Serif" font-size="14.00" fill="#073b6f">system</text>
</g>
<!-- cloud.ui -->
<g id="node3" class="node">
<title>cloud.ui</title>
<path fill="none" stroke="#3c7fc0" d="M148.43,-483.6C148.43,-483.6 43.57,-483.6 43.57,-483.6 37.57,-483.6 31.57,-477.6 31.57,-471.6 31.57,-471.6 31.57,-420.4 31.57,-420.4 31.57,-414.4 37.57,-408.4 43.57,-408.4 43.57,-408.4 148.43,-408.4 148.43,-408.4 154.43,-408.4 160.43,-414.4 160.43,-420.4 160.43,-420.4 160.43,-471.6 160.43,-471.6 160.43,-477.6 154.43,-483.6 148.43,-483.6"/>
<text xml:space="preserve" text-anchor="start" x="61.78" y="-468" font-family="Helvetica,sans-Serif" font-weight="bold" font-size="14.00" fill="#3c7fc0">Frontends</text>
<text xml:space="preserve" text-anchor="start" x="48.91" y="-448.8" font-family="Helvetica,sans-Serif" font-size="14.00" fill="#3c7fc0">All the frontend</text>
<text xml:space="preserve" text-anchor="start" x="39.57" y="-432" font-family="Helvetica,sans-Serif" font-size="14.00" fill="#3c7fc0">applications of the</text>
<text xml:space="preserve" text-anchor="start" x="55.15" y="-415.2" font-family="Helvetica,sans-Serif" font-size="14.00" fill="#3c7fc0">cloud system</text>
</g>
<!-- customer&#45;&gt;cloud.ui -->
<g id="edge1" class="edge">
<title>customer&#45;&gt;cloud.ui</title>
<path fill="none" stroke="#073b6f" d="M96,-554.13C96,-535.82 96,-514.3 96,-495.38"/>
<polygon fill="#073b6f" stroke="#073b6f" points="99.5,-495.49 96,-485.49 92.5,-495.49 99.5,-495.49"/>
<text xml:space="preserve" text-anchor="start" x="96" y="-526.4" font-family="Helvetica,sans-Serif" font-size="10.00" fill="#073b6f">Uses and pays</text>
</g>
<!-- supportUser -->
<g id="node2" class="node">
<title>supportUser</title>
<path fill="none" stroke="#073b6f" d="M168.13,-780.8C168.13,-780.8 23.87,-780.8 23.87,-780.8 17.87,-780.8 11.87,-774.8 11.87,-768.8 11.87,-768.8 11.87,-700.8 11.87,-700.8 11.87,-694.8 17.87,-688.8 23.87,-688.8 23.87,-688.8 168.13,-688.8 168.13,-688.8 174.13,-688.8 180.13,-694.8 180.13,-700.8 180.13,-700.8 180.13,-768.8 180.13,-768.8 180.13,-774.8 174.13,-780.8 168.13,-780.8"/>
<text xml:space="preserve" text-anchor="start" x="19.87" y="-722" font-family="Helvetica,sans-Serif" font-size="32.00" fill="#073b6f">👤</text>
<text xml:space="preserve" text-anchor="start" x="66.72" y="-765.2" font-family="Helvetica,sans-Serif" font-weight="bold" font-size="14.00" fill="#073b6f">Support Team</text>
<text xml:space="preserve" text-anchor="start" x="56.98" y="-746" font-family="Helvetica,sans-Serif" font-size="14.00" fill="#073b6f">An employee from</text>
<text xml:space="preserve" text-anchor="start" x="59.31" y="-729.2" font-family="Helvetica,sans-Serif" font-size="14.00" fill="#073b6f">the support team.</text>
<text xml:space="preserve" text-anchor="start" x="55.43" y="-712.4" font-family="Helvetica,sans-Serif" font-size="14.00" fill="#073b6f">Has limited access</text>
<text xml:space="preserve" text-anchor="start" x="72.15" y="-695.6" font-family="Helvetica,sans-Serif" font-size="14.00" fill="#073b6f">to the system</text>
</g>
<!-- supportUser&#45;&gt;customer -->
<g id="edge2" class="edge">
<title>supportUser&#45;&gt;customer</title>
<path fill="none" stroke="#073b6f" d="M96,-688.4C96,-676.78 96,-664.16 96,-652.17"/>
<polygon fill="#073b6f" stroke="#073b6f" points="99.5,-652.42 96,-642.42 92.5,-652.42 99.5,-652.42"/>
<text xml:space="preserve" text-anchor="start" x="96" y="-660.8" font-family="Helvetica,sans-Serif" font-size="10.00" fill="#073b6f">Helps with questions</text>
</g>
<!-- cloud.next -->
<g id="node5" class="node">
<title>cloud.next</title>
<path fill="none" stroke="#3c7fc0" d="M149.59,-360.4C149.59,-360.4 42.41,-360.4 42.41,-360.4 36.41,-360.4 30.41,-354.4 30.41,-348.4 30.41,-348.4 30.41,-297.2 30.41,-297.2 30.41,-291.2 36.41,-285.2 42.41,-285.2 42.41,-285.2 149.59,-285.2 149.59,-285.2 155.59,-285.2 161.59,-291.2 161.59,-297.2 161.59,-297.2 161.59,-348.4 161.59,-348.4 161.59,-354.4 155.59,-360.4 149.59,-360.4"/>
<text xml:space="preserve" text-anchor="start" x="59.06" y="-344.8" font-family="Helvetica,sans-Serif" font-weight="bold" font-size="14.00" fill="#3c7fc0">Cloud Next</text>
<text xml:space="preserve" text-anchor="start" x="42.7" y="-325.6" font-family="Helvetica,sans-Serif" font-size="14.00" fill="#3c7fc0">Cloud Next is the</text>
<text xml:space="preserve" text-anchor="start" x="38.41" y="-308.8" font-family="Helvetica,sans-Serif" font-size="14.00" fill="#3c7fc0">next version of our</text>
<text xml:space="preserve" text-anchor="start" x="51.65" y="-292" font-family="Helvetica,sans-Serif" font-size="14.00" fill="#3c7fc0">cloud systems</text>
</g>
<!-- cloud.ui&#45;&gt;cloud.next -->
<g id="edge3" class="edge">
<title>cloud.ui&#45;&gt;cloud.next</title>
<path fill="none" stroke="#3c7fc0" d="M96,-407.98C96,-396.58 96,-383.87 96,-371.85"/>
<polygon fill="#3c7fc0" stroke="#3c7fc0" points="99.5,-372.11 96,-362.11 92.5,-372.11 99.5,-372.11"/>
<text xml:space="preserve" text-anchor="start" x="96" y="-380.4" font-family="Helvetica,sans-Serif" font-size="10.00" fill="#3c7fc0">Requests data</text>
</g>
<!-- cloud.legacy -->
<g id="node4" class="node">
<title>cloud.legacy</title>
<g id="a_node4"><a xlink:href="https://github.com/likec4/example-cloud-system/blob/main/.github/workflows/update-diagrams.yml#L19-L25" xlink:title="&lt;TABLE&gt;">
<path fill="none" stroke="#3c7fc0" d="M149.99,-197.6C149.99,-197.6 28.01,-197.6 28.01,-197.6 22.01,-197.6 16.01,-191.6 16.01,-185.6 16.01,-185.6 16.01,-117.6 16.01,-117.6 16.01,-111.6 22.01,-105.6 28.01,-105.6 28.01,-105.6 149.99,-105.6 149.99,-105.6 155.99,-105.6 161.99,-111.6 161.99,-117.6 161.99,-117.6 161.99,-185.6 161.99,-185.6 161.99,-191.6 155.99,-197.6 149.99,-197.6"/>
<text xml:space="preserve" text-anchor="start" x="33.38" y="-182" font-family="Helvetica,sans-Serif" font-weight="bold" font-size="14.00" fill="#3c7fc0">Cloud Legacy 📖</text>
<text xml:space="preserve" text-anchor="start" x="30.25" y="-162.8" font-family="Helvetica,sans-Serif" font-size="14.00" fill="#3c7fc0">The legacy version</text>
<text xml:space="preserve" text-anchor="start" x="25.58" y="-146" font-family="Helvetica,sans-Serif" font-size="14.00" fill="#3c7fc0">of our SaaS MVP as</text>
<text xml:space="preserve" text-anchor="start" x="24.01" y="-129.2" font-family="Helvetica,sans-Serif" font-size="14.00" fill="#3c7fc0">was presented to the</text>
<text xml:space="preserve" text-anchor="start" x="43.49" y="-112.4" font-family="Helvetica,sans-Serif" font-size="14.00" fill="#3c7fc0">first customers</text>
</a>
</g>
</g>
<!-- cloud.next&#45;&gt;cloud.legacy -->
<g id="edge4" class="edge">
<title>cloud.next&#45;&gt;cloud.legacy</title>
<path fill="none" stroke="#3c7fc0" d="M94.48,-285.09C93.56,-262.92 92.38,-234.21 91.34,-209.19"/>
<polygon fill="#3c7fc0" stroke="#3c7fc0" points="94.85,-209.35 90.94,-199.5 87.86,-209.64 94.85,-209.35"/>
<text xml:space="preserve" text-anchor="start" x="93.74" y="-257.2" font-family="Helvetica,sans-Serif" font-size="10.00" fill="#3c7fc0">Calls legacy</text>
</g>
<!-- amazon.rds -->
<g id="node6" class="node">
<title>amazon.rds</title>
<g id="a_node6"><a xlink:href="cloud-system/amazon/rds.svg" xlink:title="&lt;TABLE&gt;">
<path fill="none" stroke="#3c7fc0" d="M316.04,-180.8C316.04,-180.8 197.96,-180.8 197.96,-180.8 191.96,-180.8 185.96,-174.8 185.96,-168.8 185.96,-168.8 185.96,-134.4 185.96,-134.4 185.96,-128.4 191.96,-122.4 197.96,-122.4 197.96,-122.4 316.04,-122.4 316.04,-122.4 322.04,-122.4 328.04,-128.4 328.04,-134.4 328.04,-134.4 328.04,-168.8 328.04,-168.8 328.04,-174.8 322.04,-180.8 316.04,-180.8"/>
<text xml:space="preserve" text-anchor="start" x="232.5" y="-165.2" font-family="Helvetica,sans-Serif" font-weight="bold" font-size="14.00" fill="#3c7fc0">RDS 🔍</text>
<text xml:space="preserve" text-anchor="start" x="193.96" y="-146" font-family="Helvetica,sans-Serif" font-size="14.00" fill="#3c7fc0">Relational Database</text>
<text xml:space="preserve" text-anchor="start" x="233.66" y="-129.2" font-family="Helvetica,sans-Serif" font-size="14.00" fill="#3c7fc0">Service</text>
</a>
</g>
</g>
<!-- cloud.next&#45;&gt;amazon.rds -->
<g id="edge5" class="edge">
<title>cloud.next&#45;&gt;amazon.rds</title>
<path fill="none" stroke="#3c7fc0" stroke-width="2" d="M135.94,-284.89C148.35,-273.07 161.95,-259.78 174,-247.2 191.31,-229.13 209.74,-208.3 224.83,-190.79"/>
<polygon fill="#3c7fc0" stroke="#3c7fc0" stroke-width="2" points="227.48,-193.08 231.32,-183.21 222.16,-188.52 227.48,-193.08"/>
<text xml:space="preserve" text-anchor="start" x="165.84" y="-257.2" font-family="Helvetica,sans-Serif" font-size="10.00" fill="#3c7fc0">Queries</text>
</g>
<!-- amazon.sqs -->
<g id="node7" class="node">
<title>amazon.sqs</title>
<g id="a_node7"><a xlink:href="cloud-system/amazon/sqs.svg" xlink:title="&lt;TABLE&gt;">
<path fill="none" stroke="#3c7fc0" d="M473.64,-57.6C473.64,-57.6 342.36,-57.6 342.36,-57.6 336.36,-57.6 330.36,-51.6 330.36,-45.6 330.36,-45.6 330.36,-28 330.36,-28 330.36,-22 336.36,-16 342.36,-16 342.36,-16 473.64,-16 473.64,-16 479.64,-16 485.64,-22 485.64,-28 485.64,-28 485.64,-45.6 485.64,-45.6 485.64,-51.6 479.64,-57.6 473.64,-57.6"/>
<text xml:space="preserve" text-anchor="start" x="383.49" y="-42" font-family="Helvetica,sans-Serif" font-weight="bold" font-size="14.00" fill="#3c7fc0">SQS 🔍</text>
<text xml:space="preserve" text-anchor="start" x="338.36" y="-22.8" font-family="Helvetica,sans-Serif" font-size="14.00" fill="#3c7fc0">Simple Queue Service</text>
</a>
</g>
</g>
<!-- cloud.next&#45;&gt;amazon.sqs -->
<g id="edge6" class="edge">
<title>cloud.next&#45;&gt;amazon.sqs</title>
<path fill="none" stroke="#3c7fc0" d="M161.85,-319.32C264.04,-313.93 453.41,-297.28 495,-247.2 543.79,-188.44 538.28,-131.28 486,-75.6 482.05,-71.39 477.52,-67.59 472.69,-64.18"/>
<polygon fill="#3c7fc0" stroke="#3c7fc0" points="474.68,-61.29 464.37,-58.89 470.93,-67.2 474.68,-61.29"/>
<text xml:space="preserve" text-anchor="start" x="528.59" y="-147.6" font-family="Helvetica,sans-Serif" font-size="10.00" fill="#3c7fc0">Publishes events</text>
</g>
<!-- amazon.lambdas -->
<g id="node8" class="node">
<title>amazon.lambdas</title>
<g id="a_node8"><a xlink:href="cloud-system/amazon/lambdas.svg" xlink:title="&lt;TABLE&gt;">
<path fill="none" stroke="#3c7fc0" d="M473.86,-172.4C473.86,-172.4 358.14,-172.4 358.14,-172.4 352.14,-172.4 346.14,-166.4 346.14,-160.4 346.14,-160.4 346.14,-142.8 346.14,-142.8 346.14,-136.8 352.14,-130.8 358.14,-130.8 358.14,-130.8 473.86,-130.8 473.86,-130.8 479.86,-130.8 485.86,-136.8 485.86,-142.8 485.86,-142.8 485.86,-160.4 485.86,-160.4 485.86,-166.4 479.86,-172.4 473.86,-172.4"/>
<text xml:space="preserve" text-anchor="start" x="375.54" y="-156.8" font-family="Helvetica,sans-Serif" font-weight="bold" font-size="14.00" fill="#3c7fc0">Lambdas 🔍</text>
<text xml:space="preserve" text-anchor="start" x="354.14" y="-137.6" font-family="Helvetica,sans-Serif" font-size="14.00" fill="#3c7fc0">Serverless compute</text>
</a>
</g>
</g>
<!-- amazon.lambdas&#45;&gt;amazon.sqs -->
<g id="edge7" class="edge">
<title>amazon.lambdas&#45;&gt;amazon.sqs</title>
<path fill="none" stroke="#3c7fc0" stroke-width="2" d="M414.57,-130.43C413.39,-113.83 411.7,-89.97 410.33,-70.62"/>
<polygon fill="#3c7fc0" stroke="#3c7fc0" stroke-width="2" points="413.83,-70.54 409.63,-60.81 406.85,-71.03 413.83,-70.54"/>
<text xml:space="preserve" text-anchor="start" x="411.52" y="-77.6" font-family="Helvetica,sans-Serif" font-size="10.00" fill="#3c7fc0">Reads raw data</text>
</g>
<!-- __c4drill_legend -->
<g id="node9" class="node">
<title>__c4drill_legend</title>
<polygon fill="none" stroke="#666666" points="206.43,-701.8 206.43,-767.8 253.57,-767.8 253.57,-701.8 206.43,-701.8"/>
<text xml:space="preserve" text-anchor="start" x="209.43" y="-756.8" font-family="Helvetica,sans-Serif" font-weight="bold" font-size="10.00" fill="#666666">legend</text>
<text xml:space="preserve" text-anchor="start" x="209.43" y="-738.8" font-family="Helvetica,sans-Serif" font-size="10.00" fill="#073b6f">person</text>
<text xml:space="preserve" text-anchor="start" x="209.43" y="-722.8" font-family="Helvetica,sans-Serif" font-size="10.00" fill="#073b6f">system</text>
<text xml:space="preserve" text-anchor="start" x="209.43" y="-706.8" font-family="Helvetica,sans-Serif" font-size="10.00" fill="#3c7fc0">container</text>
</g>
</g>
</svg>
