<?xml version="1.0" encoding="UTF-8" standalone="no"?>
<!DOCTYPE svg PUBLIC "-//W3C//DTD SVG 1.1//EN"
 "http://www.w3.org/Graphics/SVG/1.1/DTD/svg11.dtd">
<!-- Generated by graphviz version 15.1.1 (20260805.0921)
 -->
<!-- Pages: 1 -->
<svg width="416pt" height="395pt"
 viewBox="0.00 0.00 416.00 395.00" xmlns="http://www.w3.org/2000/svg" xmlns:xlink="http://www.w3.org/1999/xlink">
<g id="graph0" class="graph" transform="scale(1 1) rotate(0) translate(4 390.8)">
<polygon fill="white" stroke="none" points="-4,4 -4,-390.8 411.74,-390.8 411.74,4 -4,4"/>
<g id="a_graph0_1"><a xlink:href="../../11-nesting-context.svg" xlink:title="&lt;TABLE&gt;">
<text xml:space="preserve" text-anchor="start" x="112.17" y="-374.8" font-family="Helvetica,sans-Serif" text-decoration="underline" font-size="10.00" fill="#666666">Nesting Context</text>
</a>
</g>
<text xml:space="preserve" text-anchor="start" x="183.31" y="-372.8" font-family="Helvetica,sans-Serif" font-size="10.00" fill="#666666">→</text>
<g id="a_graph0_2"><a xlink:href="../platform.svg" xlink:title="&lt;TABLE&gt;">
<text xml:space="preserve" text-anchor="start" x="191.65" y="-374.8" font-family="Helvetica,sans-Serif" text-decoration="underline" font-size="10.00" fill="#666666">Platform</text>
</a>
</g>
<text xml:space="preserve" text-anchor="start" x="228.88" y="-372.8" font-family="Helvetica,sans-Serif" font-size="10.00" fill="#666666">→</text>
<text xml:space="preserve" text-anchor="start" x="237.21" y="-372.8" font-family="Helvetica,sans-Serif" font-size="10.00" fill="#666666">API Gateway</text>
<text xml:space="preserve" text-anchor="start" x="178.58" y="-356.8" font-family="Helvetica,sans-Serif" font-size="14.00">platform</text>
<g id="clust1" class="cluster">
<title>cluster___content</title>
</g>
<g id="clust2" class="cluster">
<title>cluster_platform.gateway</title>
<path fill="none" stroke="#3c7fc0" d="M28,-104C28,-104 308,-104 308,-104 314,-104 320,-110 320,-116 320,-116 320,-185.6 320,-185.6 320,-191.6 314,-197.6 308,-197.6 308,-197.6 28,-197.6 28,-197.6 22,-197.6 16,-191.6 16,-185.6 16,-185.6 16,-116 16,-116 16,-110 22,-104 28,-104"/>
<text xml:space="preserve" text-anchor="start" x="125.59" y="-182" font-family="Helvetica,sans-Serif" font-weight="bold" font-size="14.00" fill="#3c7fc0">API Gateway</text>
<text xml:space="preserve" text-anchor="start" x="154.77" y="-165.2" font-family="Helvetica,sans-Serif" font-style="italic" font-size="14.00" fill="#3c7fc0">[Go]</text>
</g>
<!-- admin -->
<g id="node1" class="node">
<title>admin</title>
<path fill="none" stroke="#073b6f" d="M126.57,-334C126.57,-334 41.43,-334 41.43,-334 35.43,-334 29.43,-328 29.43,-322 29.43,-322 29.43,-259.6 29.43,-259.6 29.43,-253.6 35.43,-247.6 41.43,-247.6 41.43,-247.6 126.57,-247.6 126.57,-247.6 132.57,-247.6 138.57,-253.6 138.57,-259.6 138.57,-259.6 138.57,-322 138.57,-322 138.57,-328 132.57,-334 126.57,-334"/>
<text xml:space="preserve" text-anchor="start" x="37.43" y="-278" font-family="Helvetica,sans-Serif" font-size="32.00" fill="#073b6f">👤</text>
<text xml:space="preserve" text-anchor="start" x="73.39" y="-318.4" font-family="Helvetica,sans-Serif" font-weight="bold" font-size="14.00" fill="#073b6f">Platform</text>
<text xml:space="preserve" text-anchor="start" x="80.01" y="-304.4" font-family="Helvetica,sans-Serif" font-weight="bold" font-size="14.00" fill="#073b6f">Admin</text>
<text xml:space="preserve" text-anchor="start" x="72.99" y="-288" font-family="Helvetica,sans-Serif" font-size="14.00" fill="#073b6f">Operates</text>
<text xml:space="preserve" text-anchor="start" x="92.05" y="-271.2" font-family="Helvetica,sans-Serif" font-size="14.00" fill="#073b6f">the</text>
<text xml:space="preserve" text-anchor="start" x="76.5" y="-254.4" font-family="Helvetica,sans-Serif" font-size="14.00" fill="#073b6f">platform</text>
</g>
<!-- platform.gateway.router -->
<g id="node3" class="node">
<title>platform.gateway.router</title>
<path fill="none" stroke="#78a8d8" d="M132.12,-148C132.12,-148 35.88,-148 35.88,-148 29.88,-148 23.88,-142 23.88,-136 23.88,-136 23.88,-124 23.88,-124 23.88,-118 29.88,-112 35.88,-112 35.88,-112 132.12,-112 132.12,-112 138.12,-112 144.12,-118 144.12,-124 144.12,-124 144.12,-136 144.12,-136 144.12,-142 138.12,-148 132.12,-148"/>
<text xml:space="preserve" text-anchor="start" x="31.88" y="-126.8" font-family="Helvetica,sans-Serif" font-weight="bold" font-size="14.00" fill="#78a8d8">Request Router</text>
</g>
<!-- admin&#45;&gt;platform.gateway.router -->
<g id="edge1" class="edge">
<title>admin&#45;&gt;platform.gateway.router</title>
<path fill="none" stroke="#073b6f" d="M84,-247.24C84,-219.58 84,-184.25 84,-159.83"/>
<polygon fill="#073b6f" stroke="#073b6f" points="87.5,-160 84,-150 80.5,-160 87.5,-160"/>
<text xml:space="preserve" text-anchor="start" x="105.69" y="-221.6" font-family="Helvetica,sans-Serif" font-style="italic" font-size="10.00" fill="#073b6f">[HTTPS]</text>
<text xml:space="preserve" text-anchor="start" x="84" y="-207.6" font-family="Helvetica,sans-Serif" font-size="10.00" fill="#073b6f">Configures routing</text>
</g>
<!-- platform.data -->
<g id="node2" class="node">
<title>platform.data</title>
<g id="a_node2"><a xlink:href="data.svg" xlink:title="&lt;TABLE&gt;">
<path fill="none" stroke="#3c7fc0" stroke-dasharray="5,2" d="M257.9,-52C257.9,-52 216.1,-52 216.1,-52 210.1,-52 204.1,-46 204.1,-40 204.1,-40 204.1,-28 204.1,-28 204.1,-22 210.1,-16 216.1,-16 216.1,-16 257.9,-16 257.9,-16 263.9,-16 269.9,-22 269.9,-28 269.9,-28 269.9,-40 269.9,-40 269.9,-46 263.9,-52 257.9,-52"/>
<text xml:space="preserve" text-anchor="start" x="212.1" y="-30.8" font-family="Helvetica,sans-Serif" font-weight="bold" font-size="14.00" fill="#3c7fc0">Data 🔍</text>
</a>
</g>
</g>
<!-- platform.gateway.pipeline -->
<g id="node4" class="node">
<title>platform.gateway.pipeline</title>
<g id="a_node4"><a xlink:href="gateway/pipeline.svg" xlink:title="&lt;TABLE&gt;">
<path fill="none" stroke="#78a8d8" stroke-dasharray="5,2" d="M299.52,-148C299.52,-148 174.48,-148 174.48,-148 168.48,-148 162.48,-142 162.48,-136 162.48,-136 162.48,-124 162.48,-124 162.48,-118 168.48,-112 174.48,-112 174.48,-112 299.52,-112 299.52,-112 305.52,-112 311.52,-118 311.52,-124 311.52,-124 311.52,-136 311.52,-136 311.52,-142 305.52,-148 299.52,-148"/>
<text xml:space="preserve" text-anchor="start" x="170.48" y="-132.4" font-family="Helvetica,sans-Serif" font-weight="bold" font-size="14.00" fill="#78a8d8">Processing Pipeline</text>
<text xml:space="preserve" text-anchor="start" x="229.22" y="-118.4" font-family="Helvetica,sans-Serif" font-weight="bold" font-size="14.00" fill="#78a8d8">🔍</text>
</a>
</g>
</g>
<!-- platform.gateway.pipeline&#45;&gt;platform.data -->
<g id="edge2" class="edge">
<title>platform.gateway.pipeline&#45;&gt;platform.data</title>
<path fill="none" stroke="#78a8d8" d="M237,-111.76C237,-98.33 237,-79.39 237,-63.68"/>
<polygon fill="#78a8d8" stroke="#78a8d8" points="240.5,-63.96 237,-53.96 233.5,-63.96 240.5,-63.96"/>
<text xml:space="preserve" text-anchor="start" x="260.62" y="-86" font-family="Helvetica,sans-Serif" font-style="italic" font-size="10.00" fill="#78a8d8">[gRPC]</text>
<text xml:space="preserve" text-anchor="start" x="237" y="-72" font-family="Helvetica,sans-Serif" font-size="10.00" fill="#78a8d8">Checks freshness</text>
</g>
<!-- __c4drill_legend -->
<g id="node5" class="node">
<title>__c4drill_legend</title>
<polygon fill="none" stroke="#666666" points="344.26,-257.8 344.26,-323.8 399.74,-323.8 399.74,-257.8 344.26,-257.8"/>
<text xml:space="preserve" text-anchor="start" x="347.26" y="-312.8" font-family="Helvetica,sans-Serif" font-weight="bold" font-size="10.00" fill="#666666">legend</text>
<text xml:space="preserve" text-anchor="start" x="347.26" y="-294.8" font-family="Helvetica,sans-Serif" font-size="10.00" fill="#073b6f">person</text>
<text xml:space="preserve" text-anchor="start" x="347.26" y="-278.8" font-family="Helvetica,sans-Serif" font-size="10.00" fill="#3c7fc0">container</text>
<text xml:space="preserve" text-anchor="start" x="347.26" y="-262.8" font-family="Helvetica,sans-Serif" font-size="10.00" fill="#78a8d8">component</text>
</g>
</g>
</svg>
