<?xml version="1.0" encoding="UTF-8" standalone="no"?>
<!DOCTYPE svg PUBLIC "-//W3C//DTD SVG 1.1//EN"
 "http://www.w3.org/Graphics/SVG/1.1/DTD/svg11.dtd">
<!-- Generated by graphviz version 15.1.1 (20260805.0921)
 -->
<!-- Pages: 1 -->
<svg width="822pt" height="397pt"
 viewBox="0.00 0.00 822.00 397.00" xmlns="http://www.w3.org/2000/svg" xmlns:xlink="http://www.w3.org/1999/xlink">
<g id="graph0" class="graph" transform="scale(1 1) rotate(0) translate(4 393.2)">
<polygon fill="white" stroke="none" points="-4,4 -4,-393.2 818.3,-393.2 818.3,4 -4,4"/>
<text xml:space="preserve" text-anchor="start" x="356.19" y="-371.2" font-family="Helvetica,sans-Serif" font-size="14.00">Vehicle Platform</text>
<g id="clust1" class="cluster">
<title>cluster_vehiclePlatform</title>
<path fill="none" stroke="#073b6f" d="M20,-8C20,-8 778,-8 778,-8 784,-8 790,-14 790,-20 790,-20 790,-344.4 790,-344.4 790,-350.4 784,-356.4 778,-356.4 778,-356.4 20,-356.4 20,-356.4 14,-356.4 8,-350.4 8,-344.4 8,-344.4 8,-20 8,-20 8,-14 14,-8 20,-8"/>
<text xml:space="preserve" text-anchor="start" x="344.15" y="-340.8" font-family="Helvetica,sans-Serif" font-weight="bold" font-size="14.00" fill="#073b6f">Vehicle Platform</text>
</g>
<!-- vehiclePlatform.sensorProcessing -->
<g id="node1" class="node">
<title>vehiclePlatform.sensorProcessing</title>
<g id="a_node1"><a xlink:href="overflow-test/vehiclePlatform/sensorProcessing.svg" xlink:title="&lt;TABLE&gt;">
<path fill="none" stroke="#3c7fc0" d="M196.31,-323.6C196.31,-323.6 27.69,-323.6 27.69,-323.6 21.69,-323.6 15.69,-317.6 15.69,-311.6 15.69,-311.6 15.69,-232.4 15.69,-232.4 15.69,-226.4 21.69,-220.4 27.69,-220.4 27.69,-220.4 196.31,-220.4 196.31,-220.4 202.31,-220.4 208.31,-226.4 208.31,-232.4 208.31,-232.4 208.31,-311.6 208.31,-311.6 208.31,-317.6 202.31,-323.6 196.31,-323.6"/>
<text xml:space="preserve" text-anchor="start" x="23.69" y="-308" font-family="Helvetica,sans-Serif" font-weight="bold" font-size="14.00" fill="#3c7fc0">SensorProcessingPipeline</text>
<text xml:space="preserve" text-anchor="start" x="104.22" y="-294" font-family="Helvetica,sans-Serif" font-weight="bold" font-size="14.00" fill="#3c7fc0">🔍</text>
<text xml:space="preserve" text-anchor="start" x="50.14" y="-277.6" font-family="Helvetica,sans-Serif" font-size="14.00" fill="#3c7fc0">Handles raw sensor</text>
<text xml:space="preserve" text-anchor="start" x="61.41" y="-260.8" font-family="Helvetica,sans-Serif" font-size="14.00" fill="#3c7fc0">data acquisition,</text>
<text xml:space="preserve" text-anchor="start" x="54.41" y="-244" font-family="Helvetica,sans-Serif" font-size="14.00" fill="#3c7fc0">preprocessing and</text>
<text xml:space="preserve" text-anchor="start" x="80.09" y="-227.2" font-family="Helvetica,sans-Serif" font-size="14.00" fill="#3c7fc0">calibration</text>
</a>
</g>
</g>
<!-- vehiclePlatform.perceptionStack -->
<g id="node2" class="node">
<title>vehiclePlatform.perceptionStack</title>
<g id="a_node2"><a xlink:href="overflow-test/vehiclePlatform/perceptionStack.svg" xlink:title="&lt;TABLE&gt;">
<path fill="none" stroke="#3c7fc0" d="M205.59,-102.4C205.59,-102.4 28.41,-102.4 28.41,-102.4 22.41,-102.4 16.41,-96.4 16.41,-90.4 16.41,-90.4 16.41,-28 16.41,-28 16.41,-22 22.41,-16 28.41,-16 28.41,-16 205.59,-16 205.59,-16 211.59,-16 217.59,-22 217.59,-28 217.59,-28 217.59,-90.4 217.59,-90.4 217.59,-96.4 211.59,-102.4 205.59,-102.4"/>
<text xml:space="preserve" text-anchor="start" x="24.41" y="-86.8" font-family="Helvetica,sans-Serif" font-weight="bold" font-size="14.00" fill="#3c7fc0">PerceptionProcessingStack</text>
<text xml:space="preserve" text-anchor="start" x="109.22" y="-72.8" font-family="Helvetica,sans-Serif" font-weight="bold" font-size="14.00" fill="#3c7fc0">🔍</text>
<text xml:space="preserve" text-anchor="start" x="80.82" y="-56.4" font-family="Helvetica,sans-Serif" font-size="14.00" fill="#3c7fc0">Multi&#45;modal</text>
<text xml:space="preserve" text-anchor="start" x="63.69" y="-39.6" font-family="Helvetica,sans-Serif" font-size="14.00" fill="#3c7fc0">perception fusion</text>
<text xml:space="preserve" text-anchor="start" x="57.85" y="-22.8" font-family="Helvetica,sans-Serif" font-size="14.00" fill="#3c7fc0">for object detection</text>
</a>
</g>
</g>
<!-- vehiclePlatform.sensorProcessing&#45;&gt;vehiclePlatform.perceptionStack -->
<g id="edge1" class="edge">
<title>vehiclePlatform.sensorProcessing&#45;&gt;vehiclePlatform.perceptionStack</title>
<path fill="none" stroke="#3c7fc0" stroke-width="2" d="M73.39,-220.2C70.4,-214.42 67.84,-208.44 66,-202.4 55.39,-167.53 53.45,-154.62 66,-120.4 66.81,-118.18 67.75,-115.99 68.79,-113.83"/>
<polygon fill="#3c7fc0" stroke="#3c7fc0" stroke-width="2" points="71.77,-115.67 73.69,-105.25 65.69,-112.19 71.77,-115.67"/>
<text xml:space="preserve" text-anchor="start" x="408.19" y="-194.4" font-family="Helvetica,sans-Serif" font-style="italic" font-size="10.00" fill="#3c7fc0">[CGF Channel</text>
<text xml:space="preserve" text-anchor="start" x="404.86" y="-184.4" font-family="Helvetica,sans-Serif" font-style="italic" font-size="10.00" fill="#3c7fc0">Multi&#45;Consumer</text>
<text xml:space="preserve" text-anchor="start" x="398.46" y="-174.4" font-family="Helvetica,sans-Serif" font-style="italic" font-size="10.00" fill="#3c7fc0">Broadcast Pipeline</text>
<text xml:space="preserve" text-anchor="start" x="393.75" y="-164.4" font-family="Helvetica,sans-Serif" font-style="italic" font-size="10.00" fill="#3c7fc0">with Zero&#45;Copy DMA</text>
<text xml:space="preserve" text-anchor="start" x="411.8" y="-154.4" font-family="Helvetica,sans-Serif" font-style="italic" font-size="10.00" fill="#3c7fc0">Transfer and</text>
<text xml:space="preserve" text-anchor="start" x="419.03" y="-144.4" font-family="Helvetica,sans-Serif" font-style="italic" font-size="10.00" fill="#3c7fc0">Temporal</text>
<text xml:space="preserve" text-anchor="start" x="403.19" y="-134.4" font-family="Helvetica,sans-Serif" font-style="italic" font-size="10.00" fill="#3c7fc0">Synchronization]</text>
<text xml:space="preserve" text-anchor="start" x="66" y="-122.4" font-family="Helvetica,sans-Serif" font-size="10.00" fill="#3c7fc0">IMAGE_NATIVE_PROCESSED_CUDA_YUV420&#45;&gt;EXTERNAL:PERCEPTION_CAMERA_SENSOR0_FISHEYE0_CUDA_PROCESSED_RECTIFIED:dwImageHandle_t</text>
</g>
</g>
</svg>
