<?xml version="1.0" encoding="UTF-8" standalone="no"?>
<!DOCTYPE svg PUBLIC "-//W3C//DTD SVG 1.1//EN"
 "http://www.w3.org/Graphics/SVG/1.1/DTD/svg11.dtd">
<!-- Generated by graphviz version 12.2.1 (20241206.2353)
 -->
<!-- Pages: 1 -->
<svg width="822pt" height="339pt"
 viewBox="0.00 0.00 822.30 339.20" xmlns="http://www.w3.org/2000/svg" xmlns:xlink="http://www.w3.org/1999/xlink">
<g id="graph0" class="graph" transform="scale(1 1) rotate(0) translate(4 335.2)">
<polygon fill="white" stroke="none" points="-4,4 -4,-335.2 818.3,-335.2 818.3,4 -4,4"/>
<text text-anchor="start" x="356.19" y="-314.6" font-family="Helvetica,sans-Serif" font-size="14.00">Vehicle Platform</text>
<g id="clust1" class="cluster">
<title>cluster_vehiclePlatform</title>
<path fill="none" stroke="#073b6f" d="M20,-8C20,-8 778,-8 778,-8 784,-8 790,-14 790,-20 790,-20 790,-286.4 790,-286.4 790,-292.4 784,-298.4 778,-298.4 778,-298.4 20,-298.4 20,-298.4 14,-298.4 8,-292.4 8,-286.4 8,-286.4 8,-20 8,-20 8,-14 14,-8 20,-8"/>
<text text-anchor="start" x="344.15" y="-282.8" font-family="Helvetica,sans-Serif" font-weight="bold" font-size="14.00" fill="#073b6f">Vehicle Platform</text>
</g>
<!-- vehiclePlatform.sensorProcessing -->
<g id="node1" class="node">
<title>vehiclePlatform.sensorProcessing</title>
<g id="a_node1"><a xlink:href="overflow-test/vehiclePlatform/sensorProcessing.svg" xlink:title="&lt;TABLE&gt;">
<path fill="none" stroke="#3c7fc0" d="M172.25,-265.6C172.25,-265.6 27.75,-265.6 27.75,-265.6 21.75,-265.6 15.75,-259.6 15.75,-253.6 15.75,-253.6 15.75,-174.4 15.75,-174.4 15.75,-168.4 21.75,-162.4 27.75,-162.4 27.75,-162.4 172.25,-162.4 172.25,-162.4 178.25,-162.4 184.25,-168.4 184.25,-174.4 184.25,-174.4 184.25,-253.6 184.25,-253.6 184.25,-259.6 178.25,-265.6 172.25,-265.6"/>
<text text-anchor="start" x="23.75" y="-250" font-family="Helvetica,sans-Serif" font-weight="bold" font-size="14.00" fill="#3c7fc0">SensorProcessingPipe</text>
<text text-anchor="start" x="78.22" y="-236" font-family="Helvetica,sans-Serif" font-weight="bold" font-size="14.00" fill="#3c7fc0">line 🔍</text>
<text text-anchor="start" x="38.14" y="-221" font-family="Helvetica,sans-Serif" font-size="14.00" fill="#3c7fc0">Handles raw sensor</text>
<text text-anchor="start" x="49.41" y="-204.2" font-family="Helvetica,sans-Serif" font-size="14.00" fill="#3c7fc0">data acquisition,</text>
<text text-anchor="start" x="42.41" y="-187.4" font-family="Helvetica,sans-Serif" font-size="14.00" fill="#3c7fc0">preprocessing and</text>
<text text-anchor="start" x="68.09" y="-170.6" font-family="Helvetica,sans-Serif" font-size="14.00" fill="#3c7fc0">calibration</text>
</a>
</g>
</g>
<!-- vehiclePlatform.perceptionStack -->
<g id="node2" class="node">
<title>vehiclePlatform.perceptionStack</title>
<g id="a_node2"><a xlink:href="overflow-test/vehiclePlatform/perceptionStack.svg" xlink:title="&lt;TABLE&gt;">
<path fill="none" stroke="#3c7fc0" d="M167.91,-102.4C167.91,-102.4 28.09,-102.4 28.09,-102.4 22.09,-102.4 16.09,-96.4 16.09,-90.4 16.09,-90.4 16.09,-28 16.09,-28 16.09,-22 22.09,-16 28.09,-16 28.09,-16 167.91,-16 167.91,-16 173.91,-16 179.91,-22 179.91,-28 179.91,-28 179.91,-90.4 179.91,-90.4 179.91,-96.4 173.91,-102.4 167.91,-102.4"/>
<text text-anchor="start" x="24.09" y="-86.8" font-family="Helvetica,sans-Serif" font-weight="bold" font-size="14.00" fill="#3c7fc0">PerceptionProcessing</text>
<text text-anchor="start" x="69.6" y="-72.8" font-family="Helvetica,sans-Serif" font-weight="bold" font-size="14.00" fill="#3c7fc0">Stack 🔍</text>
<text text-anchor="start" x="61.82" y="-57.8" font-family="Helvetica,sans-Serif" font-size="14.00" fill="#3c7fc0">Multi&#45;modal</text>
<text text-anchor="start" x="44.69" y="-41" font-family="Helvetica,sans-Serif" font-size="14.00" fill="#3c7fc0">perception fusion</text>
<text text-anchor="start" x="38.85" y="-24.2" font-family="Helvetica,sans-Serif" font-size="14.00" fill="#3c7fc0">for object detection</text>
</a>
</g>
</g>
<!-- vehiclePlatform.sensorProcessing&#45;&gt;vehiclePlatform.perceptionStack -->
<g id="edge1" class="edge">
<title>vehiclePlatform.sensorProcessing&#45;&gt;vehiclePlatform.perceptionStack</title>
<path fill="none" stroke="#3c7fc0" stroke-width="2" d="M71.71,-162.27C69.39,-156.38 67.39,-150.35 66,-144.4 63.72,-134.66 64.58,-124.53 67.15,-114.81"/>
<polygon fill="#3c7fc0" stroke="#3c7fc0" stroke-width="2" points="70.36,-116.24 70.24,-105.65 63.73,-114 70.36,-116.24"/>
<text text-anchor="middle" x="440.15" y="-135.4" font-family="Helvetica,sans-Serif" font-size="10.00" fill="#3c7fc0">[CGF Channel Multi&#45;Consumer Broadcast Pipeline with Zero&#45;Copy DMA Transfer and Temporal Synchronization]</text>
<text text-anchor="middle" x="440.15" y="-123.4" font-family="Helvetica,sans-Serif" font-size="10.00" fill="#3c7fc0">IMAGE_NATIVE_PROCESSED_CUDA_YUV420&#45;&gt;EXTERNAL:PERCEPTION_CAMERA_SENSOR0_FISHEYE0_CUDA_PROCESSED_RECTIFIED:dwImageHandle_t</text>
</g>
</g>
</svg>
