<?xml version="1.0" encoding="UTF-8" standalone="no"?>
<!DOCTYPE svg PUBLIC "-//W3C//DTD SVG 1.1//EN"
 "http://www.w3.org/Graphics/SVG/1.1/DTD/svg11.dtd">
<!-- Generated by graphviz version 15.1.1 (20260805.0921)
 -->
<!-- Pages: 1 -->
<svg width="625pt" height="563pt"
 viewBox="0.00 0.00 625.00 563.00" xmlns="http://www.w3.org/2000/svg" xmlns:xlink="http://www.w3.org/1999/xlink">
<g id="graph0" class="graph" transform="scale(1 1) rotate(0) translate(4 558.8)">
<polygon fill="white" stroke="none" points="-4,4 -4,-558.8 621.13,-558.8 621.13,4 -4,4"/>
<text xml:space="preserve" text-anchor="start" x="246.71" y="-536.8" font-family="Helvetica,sans-Serif" font-size="14.00">Templates Example</text>
<g id="clust1" class="cluster">
<title>cluster___content</title>
</g>
<g id="clust2" class="cluster">
<title>cluster_platform</title>
<path fill="none" stroke="#073b6f" d="M28,-143.2C28,-143.2 505,-143.2 505,-143.2 511,-143.2 517,-149.2 517,-155.2 517,-155.2 517,-331.2 517,-331.2 517,-337.2 511,-343.2 505,-343.2 505,-343.2 28,-343.2 28,-343.2 22,-343.2 16,-337.2 16,-331.2 16,-331.2 16,-155.2 16,-155.2 16,-149.2 22,-143.2 28,-143.2"/>
<text xml:space="preserve" text-anchor="start" x="238.11" y="-327.6" font-family="Helvetica,sans-Serif" font-weight="bold" font-size="14.00" fill="#073b6f">Platform</text>
<text xml:space="preserve" text-anchor="start" x="221.76" y="-308.4" font-family="Helvetica,sans-Serif" font-size="14.00" fill="#073b6f">Parent system</text>
<text xml:space="preserve" text-anchor="start" x="232.25" y="-291.6" font-family="Helvetica,sans-Serif" font-size="14.00" fill="#073b6f">hosting the</text>
<text xml:space="preserve" text-anchor="start" x="230.7" y="-274.8" font-family="Helvetica,sans-Serif" font-size="14.00" fill="#073b6f">instantiated</text>
<text xml:space="preserve" text-anchor="start" x="240.83" y="-258" font-family="Helvetica,sans-Serif" font-size="14.00" fill="#073b6f">services</text>
</g>
<!-- messageBus -->
<g id="node1" class="node">
<title>messageBus</title>
<path fill="none" stroke="#073b6f" d="M320.15,-91.2C320.15,-91.2 195.85,-91.2 195.85,-91.2 189.85,-91.2 183.85,-85.2 183.85,-79.2 183.85,-79.2 183.85,-28 183.85,-28 183.85,-22 189.85,-16 195.85,-16 195.85,-16 320.15,-16 320.15,-16 326.15,-16 332.15,-22 332.15,-28 332.15,-28 332.15,-79.2 332.15,-79.2 332.15,-85.2 326.15,-91.2 320.15,-91.2"/>
<text xml:space="preserve" text-anchor="start" x="211.32" y="-73.2" font-family="Helvetica,sans-Serif" font-size="14.00" fill="#073b6f">═╦╩═╦═══</text>
<text xml:space="preserve" text-anchor="start" x="213.26" y="-58.8" font-family="Helvetica,sans-Serif" font-weight="bold" font-size="14.00" fill="#073b6f">Message Bus</text>
<text xml:space="preserve" text-anchor="start" x="191.85" y="-39.6" font-family="Helvetica,sans-Serif" font-size="14.00" fill="#073b6f">Backbone for domain</text>
<text xml:space="preserve" text-anchor="start" x="205.46" y="-22.8" font-family="Helvetica,sans-Serif" font-size="14.00" fill="#073b6f">event publication</text>
</g>
<!-- customer -->
<g id="node2" class="node">
<title>customer</title>
<path fill="none" stroke="#073b6f" d="M159.98,-514C159.98,-514 32.02,-514 32.02,-514 26.02,-514 20.02,-508 20.02,-502 20.02,-502 20.02,-417.2 20.02,-417.2 20.02,-411.2 26.02,-405.2 32.02,-405.2 32.02,-405.2 159.98,-405.2 159.98,-405.2 165.98,-405.2 171.98,-411.2 171.98,-417.2 171.98,-417.2 171.98,-502 171.98,-502 171.98,-508 165.98,-514 159.98,-514"/>
<text xml:space="preserve" text-anchor="start" x="28.02" y="-446.8" font-family="Helvetica,sans-Serif" font-size="32.00" fill="#073b6f">👤</text>
<text xml:space="preserve" text-anchor="start" x="81.11" y="-498.4" font-family="Helvetica,sans-Serif" font-weight="bold" font-size="14.00" fill="#073b6f">Customer</text>
<text xml:space="preserve" text-anchor="start" x="63.58" y="-479.2" font-family="Helvetica,sans-Serif" font-size="14.00" fill="#073b6f">End user whose</text>
<text xml:space="preserve" text-anchor="start" x="72.54" y="-462.4" font-family="Helvetica,sans-Serif" font-size="14.00" fill="#073b6f">requests flow</text>
<text xml:space="preserve" text-anchor="start" x="90.82" y="-445.6" font-family="Helvetica,sans-Serif" font-size="14.00" fill="#073b6f">into the</text>
<text xml:space="preserve" text-anchor="start" x="77.98" y="-428.8" font-family="Helvetica,sans-Serif" font-size="14.00" fill="#073b6f">instantiated</text>
<text xml:space="preserve" text-anchor="start" x="88.11" y="-412" font-family="Helvetica,sans-Serif" font-size="14.00" fill="#073b6f">services</text>
</g>
<!-- platform.auth -->
<g id="node3" class="node">
<title>platform.auth</title>
<g id="a_node3"><a xlink:href="https://wiki.example.com/auth" xlink:title="&lt;TABLE&gt;">
<path fill="none" stroke="#3c7fc0" d="M156.21,-243.2C156.21,-243.2 35.79,-243.2 35.79,-243.2 29.79,-243.2 23.79,-237.2 23.79,-231.2 23.79,-231.2 23.79,-163.2 23.79,-163.2 23.79,-157.2 29.79,-151.2 35.79,-151.2 35.79,-151.2 156.21,-151.2 156.21,-151.2 162.21,-151.2 168.21,-157.2 168.21,-163.2 168.21,-163.2 168.21,-231.2 168.21,-231.2 168.21,-237.2 162.21,-243.2 156.21,-243.2"/>
<text xml:space="preserve" text-anchor="start" x="44.65" y="-227.6" font-family="Helvetica,sans-Serif" font-weight="bold" font-size="14.00" fill="#3c7fc0">auth Service 📖</text>
<text xml:space="preserve" text-anchor="start" x="60.21" y="-210.8" font-family="Helvetica,sans-Serif" font-style="italic" font-size="14.00" fill="#3c7fc0">[Go, gRPC]</text>
<text xml:space="preserve" text-anchor="start" x="46.97" y="-191.6" font-family="Helvetica,sans-Serif" font-size="14.00" fill="#3c7fc0">auth handles its</text>
<text xml:space="preserve" text-anchor="start" x="31.79" y="-174.8" font-family="Helvetica,sans-Serif" font-size="14.00" fill="#3c7fc0">domain; publishes to</text>
<text xml:space="preserve" text-anchor="start" x="55.53" y="-158" font-family="Helvetica,sans-Serif" font-size="14.00" fill="#3c7fc0">messageBus</text>
</a>
</g>
</g>
<!-- customer&#45;&gt;platform.auth -->
<g id="edge4" class="edge">
<title>customer&#45;&gt;platform.auth</title>
<path fill="none" stroke="#073b6f" d="M96,-404.96C96,-361.13 96,-299.35 96,-254.75"/>
<polygon fill="#073b6f" stroke="#073b6f" points="99.5,-255.03 96,-245.03 92.5,-255.03 99.5,-255.03"/>
<text xml:space="preserve" text-anchor="start" x="116.86" y="-379.2" font-family="Helvetica,sans-Serif" font-style="italic" font-size="10.00" fill="#073b6f">[HTTPS]</text>
<text xml:space="preserve" text-anchor="start" x="96" y="-365.2" font-family="Helvetica,sans-Serif" font-size="10.00" fill="#073b6f">Authenticates and</text>
<text xml:space="preserve" text-anchor="start" x="106.01" y="-353.2" font-family="Helvetica,sans-Serif" font-size="10.00" fill="#073b6f">places orders</text>
</g>
<!-- platform.auth&#45;&gt;messageBus -->
<g id="edge2" class="edge">
<title>platform.auth&#45;&gt;messageBus</title>
<path fill="none" stroke="#3c7fc0" d="M142.25,-151.11C156.77,-137.37 173.03,-122.42 188.4,-109.2 192.41,-105.75 196.6,-102.24 200.85,-98.75"/>
<polygon fill="#3c7fc0" stroke="#3c7fc0" points="202.88,-101.61 208.44,-92.59 198.47,-96.17 202.88,-101.61"/>
<text xml:space="preserve" text-anchor="start" x="188.4" y="-123.2" font-family="Helvetica,sans-Serif" font-size="10.00" fill="#3c7fc0">Publishes auth</text>
<text xml:space="preserve" text-anchor="start" x="188.68" y="-111.2" font-family="Helvetica,sans-Serif" font-size="10.00" fill="#3c7fc0">domain events</text>
</g>
<!-- platform.billing -->
<g id="node4" class="node">
<title>platform.billing</title>
<g id="a_node4"><a xlink:href="https://wiki.example.com/billing" xlink:title="&lt;TABLE&gt;">
<path fill="none" stroke="#3c7fc0" d="M318.21,-243.2C318.21,-243.2 197.79,-243.2 197.79,-243.2 191.79,-243.2 185.79,-237.2 185.79,-231.2 185.79,-231.2 185.79,-163.2 185.79,-163.2 185.79,-157.2 191.79,-151.2 197.79,-151.2 197.79,-151.2 318.21,-151.2 318.21,-151.2 324.21,-151.2 330.21,-157.2 330.21,-163.2 330.21,-163.2 330.21,-231.2 330.21,-231.2 330.21,-237.2 324.21,-243.2 318.21,-243.2"/>
<text xml:space="preserve" text-anchor="start" x="200.81" y="-227.6" font-family="Helvetica,sans-Serif" font-weight="bold" font-size="14.00" fill="#3c7fc0">billing Service 📖</text>
<text xml:space="preserve" text-anchor="start" x="217.16" y="-210.8" font-family="Helvetica,sans-Serif" font-style="italic" font-size="14.00" fill="#3c7fc0">[Rust, gRPC]</text>
<text xml:space="preserve" text-anchor="start" x="204.69" y="-191.6" font-family="Helvetica,sans-Serif" font-size="14.00" fill="#3c7fc0">billing handles its</text>
<text xml:space="preserve" text-anchor="start" x="193.79" y="-174.8" font-family="Helvetica,sans-Serif" font-size="14.00" fill="#3c7fc0">domain; publishes to</text>
<text xml:space="preserve" text-anchor="start" x="217.53" y="-158" font-family="Helvetica,sans-Serif" font-size="14.00" fill="#3c7fc0">messageBus</text>
</a>
</g>
</g>
<!-- platform.billing&#45;&gt;messageBus -->
<g id="edge3" class="edge">
<title>platform.billing&#45;&gt;messageBus</title>
<path fill="none" stroke="#3c7fc0" d="M258,-151.01C258,-135.51 258,-118.11 258,-102.41"/>
<polygon fill="#3c7fc0" stroke="#3c7fc0" points="261.5,-102.84 258,-92.84 254.5,-102.84 261.5,-102.84"/>
<text xml:space="preserve" text-anchor="start" x="258" y="-123.2" font-family="Helvetica,sans-Serif" font-size="10.00" fill="#3c7fc0">Publishes billing</text>
<text xml:space="preserve" text-anchor="start" x="261.33" y="-111.2" font-family="Helvetica,sans-Serif" font-size="10.00" fill="#3c7fc0">domain events</text>
</g>
<!-- platform.users -->
<g id="node5" class="node">
<title>platform.users</title>
<g id="a_node5"><a xlink:href="06-templates/platform/users.svg" xlink:title="&lt;TABLE&gt;">
<path fill="none" stroke="#3c7fc0" d="M497.38,-234.8C497.38,-234.8 360.62,-234.8 360.62,-234.8 354.62,-234.8 348.62,-228.8 348.62,-222.8 348.62,-222.8 348.62,-171.6 348.62,-171.6 348.62,-165.6 354.62,-159.6 360.62,-159.6 360.62,-159.6 497.38,-159.6 497.38,-159.6 503.38,-159.6 509.38,-165.6 509.38,-171.6 509.38,-171.6 509.38,-222.8 509.38,-222.8 509.38,-228.8 503.38,-234.8 497.38,-234.8"/>
<text xml:space="preserve" text-anchor="start" x="356.62" y="-219.2" font-family="Helvetica,sans-Serif" font-weight="bold" font-size="14.00" fill="#3c7fc0">users Data Service 🔍</text>
<text xml:space="preserve" text-anchor="start" x="415.77" y="-202.4" font-family="Helvetica,sans-Serif" font-style="italic" font-size="14.00" fill="#3c7fc0">[Go]</text>
<text xml:space="preserve" text-anchor="start" x="364.8" y="-183.2" font-family="Helvetica,sans-Serif" font-size="14.00" fill="#3c7fc0">users owns a private</text>
<text xml:space="preserve" text-anchor="start" x="410.32" y="-166.4" font-family="Helvetica,sans-Serif" font-size="14.00" fill="#3c7fc0">cache</text>
</a>
</g>
</g>
<!-- platform.users&#45;&gt;messageBus -->
<g id="edge1" class="edge">
<title>platform.users&#45;&gt;messageBus</title>
<path fill="none" stroke="#3c7fc0" d="M390.64,-159.15C373.69,-143.29 353.27,-124.85 334,-109.2 329.54,-105.58 324.87,-101.92 320.12,-98.3"/>
<polygon fill="#3c7fc0" stroke="#3c7fc0" points="322.25,-95.52 312.15,-92.31 318.04,-101.11 322.25,-95.52"/>
<text xml:space="preserve" text-anchor="start" x="367.9" y="-123.2" font-family="Helvetica,sans-Serif" font-size="10.00" fill="#3c7fc0">Publishes users</text>
<text xml:space="preserve" text-anchor="start" x="360.94" y="-111.2" font-family="Helvetica,sans-Serif" font-size="10.00" fill="#3c7fc0">cache invalidations</text>
</g>
<!-- __c4drill_legend -->
<g id="node6" class="node">
<title>__c4drill_legend</title>
<polygon fill="none" stroke="#666666" points="540.87,-418.6 540.87,-500.6 609.13,-500.6 609.13,-418.6 540.87,-418.6"/>
<text xml:space="preserve" text-anchor="start" x="543.87" y="-489.6" font-family="Helvetica,sans-Serif" font-weight="bold" font-size="10.00" fill="#666666">legend</text>
<text xml:space="preserve" text-anchor="start" x="543.87" y="-471.6" font-family="Helvetica,sans-Serif" font-size="10.00" fill="#073b6f">person</text>
<text xml:space="preserve" text-anchor="start" x="543.87" y="-455.6" font-family="Helvetica,sans-Serif" font-size="10.00" fill="#073b6f">system</text>
<text xml:space="preserve" text-anchor="start" x="543.87" y="-439.6" font-family="Helvetica,sans-Serif" font-size="10.00" fill="#073b6f">system queue</text>
<text xml:space="preserve" text-anchor="start" x="543.87" y="-423.6" font-family="Helvetica,sans-Serif" font-size="10.00" fill="#3c7fc0">container</text>
</g>
</g>
</svg>
