<?xml version="1.0" encoding="UTF-8" standalone="no"?>
<!DOCTYPE svg PUBLIC "-//W3C//DTD SVG 1.1//EN"
 "http://www.w3.org/Graphics/SVG/1.1/DTD/svg11.dtd">
<!-- Generated by graphviz version 15.1.1 (20260805.0921)
 -->
<!-- Pages: 1 -->
<svg width="256pt" height="267pt"
 viewBox="0.00 0.00 256.00 267.00" xmlns="http://www.w3.org/2000/svg" xmlns:xlink="http://www.w3.org/1999/xlink">
<g id="graph0" class="graph" transform="scale(1 1) rotate(0) translate(4 263.2)">
<polygon fill="white" stroke="none" points="-4,4 -4,-263.2 251.74,-263.2 251.74,4 -4,4"/>
<g id="a_graph0_5"><a xlink:href="../../cloud-system.svg" xlink:title="&lt;TABLE&gt;">
<text xml:space="preserve" text-anchor="start" x="45.5" y="-247.2" font-family="Helvetica,sans-Serif" text-decoration="underline" font-size="10.00" fill="#666666">Cloud System</text>
</a>
</g>
<text xml:space="preserve" text-anchor="start" x="107.75" y="-245.2" font-family="Helvetica,sans-Serif" font-size="10.00" fill="#666666">→</text>
<g id="a_graph0_6"><a xlink:href="../amazon.svg" xlink:title="&lt;TABLE&gt;">
<text xml:space="preserve" text-anchor="start" x="116.08" y="-247.2" font-family="Helvetica,sans-Serif" text-decoration="underline" font-size="10.00" fill="#666666">Amazon</text>
</a>
</g>
<text xml:space="preserve" text-anchor="start" x="152.77" y="-245.2" font-family="Helvetica,sans-Serif" font-size="10.00" fill="#666666">→</text>
<text xml:space="preserve" text-anchor="start" x="161.1" y="-245.2" font-family="Helvetica,sans-Serif" font-size="10.00" fill="#666666">Lambdas</text>
<text xml:space="preserve" text-anchor="start" x="98.97" y="-229.2" font-family="Helvetica,sans-Serif" font-size="14.00">amazon</text>
<g id="clust1" class="cluster">
<title>cluster_amazon.lambdas</title>
<path fill="none" stroke="#3c7fc0" d="M20,-81.6C20,-81.6 158,-81.6 158,-81.6 164,-81.6 170,-87.6 170,-93.6 170,-93.6 170,-202.4 170,-202.4 170,-208.4 164,-214.4 158,-214.4 158,-214.4 20,-214.4 20,-214.4 14,-214.4 8,-208.4 8,-202.4 8,-202.4 8,-93.6 8,-93.6 8,-87.6 14,-81.6 20,-81.6"/>
<text xml:space="preserve" text-anchor="start" x="58.27" y="-198.8" font-family="Helvetica,sans-Serif" font-weight="bold" font-size="14.00" fill="#3c7fc0">Lambdas</text>
<text xml:space="preserve" text-anchor="start" x="27.14" y="-179.6" font-family="Helvetica,sans-Serif" font-size="14.00" fill="#3c7fc0">Serverless compute</text>
</g>
<!-- amazon.sqs -->
<g id="node1" class="node">
<title>amazon.sqs</title>
<g id="a_node1"><a xlink:href="sqs.svg" xlink:title="&lt;TABLE&gt;">
<path fill="none" stroke="#3c7fc0" d="M154.64,-41.6C154.64,-41.6 23.36,-41.6 23.36,-41.6 17.36,-41.6 11.36,-35.6 11.36,-29.6 11.36,-29.6 11.36,-12 11.36,-12 11.36,-6 17.36,0 23.36,0 23.36,0 154.64,0 154.64,0 160.64,0 166.64,-6 166.64,-12 166.64,-12 166.64,-29.6 166.64,-29.6 166.64,-35.6 160.64,-41.6 154.64,-41.6"/>
<text xml:space="preserve" text-anchor="start" x="64.49" y="-26" font-family="Helvetica,sans-Serif" font-weight="bold" font-size="14.00" fill="#3c7fc0">SQS 🔍</text>
<text xml:space="preserve" text-anchor="start" x="19.36" y="-6.8" font-family="Helvetica,sans-Serif" font-size="14.00" fill="#3c7fc0">Simple Queue Service</text>
</a>
</g>
</g>
<!-- amazon.lambdas.fn_enrich -->
<g id="node2" class="node">
<title>amazon.lambdas.fn_enrich</title>
<path fill="none" stroke="#78a8d8" d="M150.37,-164.8C150.37,-164.8 27.63,-164.8 27.63,-164.8 21.63,-164.8 15.63,-158.8 15.63,-152.8 15.63,-152.8 15.63,-101.6 15.63,-101.6 15.63,-95.6 21.63,-89.6 27.63,-89.6 27.63,-89.6 150.37,-89.6 150.37,-89.6 156.37,-89.6 162.37,-95.6 162.37,-101.6 162.37,-101.6 162.37,-152.8 162.37,-152.8 162.37,-158.8 156.37,-164.8 150.37,-164.8"/>
<text xml:space="preserve" text-anchor="start" x="50.49" y="-149.2" font-family="Helvetica,sans-Serif" font-weight="bold" font-size="14.00" fill="#78a8d8">Enrichment</text>
<text xml:space="preserve" text-anchor="start" x="23.63" y="-130" font-family="Helvetica,sans-Serif" font-size="14.00" fill="#78a8d8">Enriches raw data by</text>
<text xml:space="preserve" text-anchor="start" x="36.07" y="-113.2" font-family="Helvetica,sans-Serif" font-size="14.00" fill="#78a8d8">adding additional</text>
<text xml:space="preserve" text-anchor="start" x="54.37" y="-96.4" font-family="Helvetica,sans-Serif" font-size="14.00" fill="#78a8d8">information</text>
</g>
<!-- amazon.lambdas.fn_enrich&#45;&gt;amazon.sqs -->
<g id="edge1" class="edge">
<title>amazon.lambdas.fn_enrich&#45;&gt;amazon.sqs</title>
<path fill="none" stroke="#78a8d8" stroke-width="2" d="M89,-89.39C89,-78.16 89,-65.89 89,-54.93"/>
<polygon fill="#78a8d8" stroke="#78a8d8" stroke-width="2" points="92.5,-54.93 89,-44.93 85.5,-54.93 92.5,-54.93"/>
<text xml:space="preserve" text-anchor="start" x="89" y="-61.6" font-family="Helvetica,sans-Serif" font-size="10.00" fill="#78a8d8">Reads raw data</text>
</g>
<!-- __c4drill_legend -->
<g id="node3" class="node">
<title>__c4drill_legend</title>
<text xml:space="preserve" text-anchor="start" x="189.26" y="-130.2" font-family="Helvetica,sans-Serif" font-size="10.00" fill="#3c7fc0">container</text>
<text xml:space="preserve" text-anchor="start" x="189.26" y="-116.2" font-family="Helvetica,sans-Serif" font-size="10.00" fill="#78a8d8">component</text>
</g>
</g>
</svg>
