<?xml version="1.0" encoding="UTF-8" standalone="no"?>
<!DOCTYPE svg PUBLIC "-//W3C//DTD SVG 1.1//EN"
 "http://www.w3.org/Graphics/SVG/1.1/DTD/svg11.dtd">
<!-- Generated by graphviz version 15.1.1 (20260805.0921)
 -->
<!-- Pages: 1 -->
<svg width="421pt" height="307pt"
 viewBox="0.00 0.00 421.00 307.00" xmlns="http://www.w3.org/2000/svg" xmlns:xlink="http://www.w3.org/1999/xlink">
<g id="graph0" class="graph" transform="scale(1 1) rotate(0) translate(4 303.2)">
<polygon fill="white" stroke="none" points="-4,4 -4,-303.2 416.69,-303.2 416.69,4 -4,4"/>
<g id="a_graph0_3"><a xlink:href="../../cloud-system.svg" xlink:title="&lt;TABLE&gt;">
<text xml:space="preserve" text-anchor="start" x="137.99" y="-287.2" font-family="Helvetica,sans-Serif" text-decoration="underline" font-size="10.00" fill="#666666">Cloud System</text>
</a>
</g>
<text xml:space="preserve" text-anchor="start" x="200.23" y="-285.2" font-family="Helvetica,sans-Serif" font-size="10.00" fill="#666666">→</text>
<g id="a_graph0_4"><a xlink:href="../amazon.svg" xlink:title="&lt;TABLE&gt;">
<text xml:space="preserve" text-anchor="start" x="208.57" y="-287.2" font-family="Helvetica,sans-Serif" text-decoration="underline" font-size="10.00" fill="#666666">Amazon</text>
</a>
</g>
<text xml:space="preserve" text-anchor="start" x="245.25" y="-285.2" font-family="Helvetica,sans-Serif" font-size="10.00" fill="#666666">→</text>
<text xml:space="preserve" text-anchor="start" x="253.59" y="-285.2" font-family="Helvetica,sans-Serif" font-size="10.00" fill="#666666">SQS</text>
<text xml:space="preserve" text-anchor="start" x="181.44" y="-269.2" font-family="Helvetica,sans-Serif" font-size="14.00">amazon</text>
<g id="clust1" class="cluster">
<title>cluster_amazon.sqs</title>
<path fill="none" stroke="#3c7fc0" d="M30.4,-8C30.4,-8 320.4,-8 320.4,-8 326.4,-8 332.4,-14 332.4,-20 332.4,-20 332.4,-162.4 332.4,-162.4 332.4,-168.4 326.4,-174.4 320.4,-174.4 320.4,-174.4 30.4,-174.4 30.4,-174.4 24.4,-174.4 18.4,-168.4 18.4,-162.4 18.4,-162.4 18.4,-20 18.4,-20 18.4,-14 24.4,-8 30.4,-8"/>
<text xml:space="preserve" text-anchor="start" x="160.62" y="-158.8" font-family="Helvetica,sans-Serif" font-weight="bold" font-size="14.00" fill="#3c7fc0">SQS</text>
<text xml:space="preserve" text-anchor="start" x="105.76" y="-139.6" font-family="Helvetica,sans-Serif" font-size="14.00" fill="#3c7fc0">Simple Queue Service</text>
</g>
<!-- cloud -->
<g id="node1" class="node">
<title>cloud</title>
<g id="a_node1"><a xlink:href="../cloud.svg" xlink:title="&lt;TABLE&gt;">
<path fill="none" stroke="#073b6f" d="M116.8,-255.4C116.8,-255.4 12,-255.4 12,-255.4 6,-255.4 0,-249.4 0,-243.4 0,-243.4 0,-231.4 0,-231.4 0,-225.4 6,-219.4 12,-219.4 12,-219.4 116.8,-219.4 116.8,-219.4 122.8,-219.4 128.8,-225.4 128.8,-231.4 128.8,-231.4 128.8,-243.4 128.8,-243.4 128.8,-249.4 122.8,-255.4 116.8,-255.4"/>
<text xml:space="preserve" text-anchor="start" x="8" y="-234.2" font-family="Helvetica,sans-Serif" font-weight="bold" font-size="14.00" fill="#073b6f">Cloud System 🔍</text>
</a>
</g>
</g>
<!-- amazon.sqs.queue1 -->
<g id="node3" class="node">
<title>amazon.sqs.queue1</title>
<path fill="none" stroke="#78a8d8" d="M158.6,-99.6C158.6,-99.6 38.2,-99.6 38.2,-99.6 32.2,-99.6 26.2,-93.6 26.2,-87.6 26.2,-87.6 26.2,-53.2 26.2,-53.2 26.2,-47.2 32.2,-41.2 38.2,-41.2 38.2,-41.2 158.6,-41.2 158.6,-41.2 164.6,-41.2 170.6,-47.2 170.6,-53.2 170.6,-53.2 170.6,-87.6 170.6,-87.6 170.6,-93.6 164.6,-99.6 158.6,-99.6"/>
<text xml:space="preserve" text-anchor="start" x="51.72" y="-81.6" font-family="Helvetica,sans-Serif" font-size="14.00" fill="#78a8d8">═╦╩═╦═══</text>
<text xml:space="preserve" text-anchor="start" x="66.89" y="-67.2" font-family="Helvetica,sans-Serif" font-weight="bold" font-size="14.00" fill="#78a8d8">Raw Data</text>
<text xml:space="preserve" text-anchor="start" x="34.2" y="-48" font-family="Helvetica,sans-Serif" font-size="14.00" fill="#78a8d8">Queue with raw data</text>
</g>
<!-- cloud&#45;&gt;amazon.sqs.queue1 -->
<g id="edge2" class="edge">
<title>cloud&#45;&gt;amazon.sqs.queue1</title>
<path fill="none" stroke="#073b6f" d="M63.71,-219.27C63.57,-208.6 63.88,-194.63 65.8,-182.4 69.63,-158.01 77.3,-131.46 84.23,-110.43"/>
<polygon fill="#073b6f" stroke="#073b6f" points="87.5,-111.71 87.39,-101.12 80.87,-109.46 87.5,-111.71"/>
<text xml:space="preserve" text-anchor="start" x="65.8" y="-184.4" font-family="Helvetica,sans-Serif" font-size="10.00" fill="#073b6f">Publishes events</text>
</g>
<!-- amazon.lambdas -->
<g id="node2" class="node">
<title>amazon.lambdas</title>
<g id="a_node2"><a xlink:href="lambdas.svg" xlink:title="&lt;TABLE&gt;">
<path fill="none" stroke="#3c7fc0" d="M294.26,-258.2C294.26,-258.2 178.54,-258.2 178.54,-258.2 172.54,-258.2 166.54,-252.2 166.54,-246.2 166.54,-246.2 166.54,-228.6 166.54,-228.6 166.54,-222.6 172.54,-216.6 178.54,-216.6 178.54,-216.6 294.26,-216.6 294.26,-216.6 300.26,-216.6 306.26,-222.6 306.26,-228.6 306.26,-228.6 306.26,-246.2 306.26,-246.2 306.26,-252.2 300.26,-258.2 294.26,-258.2"/>
<text xml:space="preserve" text-anchor="start" x="195.94" y="-242.6" font-family="Helvetica,sans-Serif" font-weight="bold" font-size="14.00" fill="#3c7fc0">Lambdas 🔍</text>
<text xml:space="preserve" text-anchor="start" x="174.54" y="-223.4" font-family="Helvetica,sans-Serif" font-size="14.00" fill="#3c7fc0">Serverless compute</text>
</a>
</g>
</g>
<!-- amazon.lambdas&#45;&gt;amazon.sqs.queue1 -->
<g id="edge1" class="edge">
<title>amazon.lambdas&#45;&gt;amazon.sqs.queue1</title>
<path fill="none" stroke="#3c7fc0" d="M195.51,-216.26C185.55,-210.14 175.45,-202.78 167.36,-194.4 143.9,-170.09 125.7,-136.25 113.9,-110.22"/>
<polygon fill="#3c7fc0" stroke="#3c7fc0" points="117.22,-109.08 110,-101.33 110.81,-111.9 117.22,-109.08"/>
<text xml:space="preserve" text-anchor="start" x="167.36" y="-184.4" font-family="Helvetica,sans-Serif" font-size="10.00" fill="#3c7fc0">Reads raw data</text>
</g>
<!-- amazon.sqs.queue2 -->
<g id="node4" class="node">
<title>amazon.sqs.queue2</title>
<path fill="none" stroke="#78a8d8" d="M312.33,-124.8C312.33,-124.8 200.47,-124.8 200.47,-124.8 194.47,-124.8 188.47,-118.8 188.47,-112.8 188.47,-112.8 188.47,-28 188.47,-28 188.47,-22 194.47,-16 200.47,-16 200.47,-16 312.33,-16 312.33,-16 318.33,-16 324.33,-22 324.33,-28 324.33,-28 324.33,-112.8 324.33,-112.8 324.33,-118.8 318.33,-124.8 312.33,-124.8"/>
<text xml:space="preserve" text-anchor="start" x="209.72" y="-106.8" font-family="Helvetica,sans-Serif" font-size="14.00" fill="#78a8d8">═╦╩═╦═══</text>
<text xml:space="preserve" text-anchor="start" x="209.33" y="-92.4" font-family="Helvetica,sans-Serif" font-weight="bold" font-size="14.00" fill="#78a8d8">Enriched Data</text>
<text xml:space="preserve" text-anchor="start" x="219.43" y="-73.2" font-family="Helvetica,sans-Serif" font-size="14.00" fill="#78a8d8">Filtered and</text>
<text xml:space="preserve" text-anchor="start" x="196.47" y="-56.4" font-family="Helvetica,sans-Serif" font-size="14.00" fill="#78a8d8">preprocessed data.</text>
<text xml:space="preserve" text-anchor="start" x="203.88" y="-39.6" font-family="Helvetica,sans-Serif" font-size="14.00" fill="#78a8d8">Ready for further</text>
<text xml:space="preserve" text-anchor="start" x="222.55" y="-22.8" font-family="Helvetica,sans-Serif" font-size="14.00" fill="#78a8d8">processing</text>
</g>
<!-- amazon.lambdas&#45;&gt;amazon.sqs.queue2 -->
<g id="edge3" class="edge">
<title>amazon.lambdas&#45;&gt;amazon.sqs.queue2</title>
<path fill="none" stroke="#3c7fc0" d="M238.85,-216.17C241.26,-196.26 245.08,-164.8 248.54,-136.28"/>
<polygon fill="#3c7fc0" stroke="#3c7fc0" points="251.98,-136.96 249.71,-126.62 245.03,-136.12 251.98,-136.96"/>
<text xml:space="preserve" text-anchor="start" x="242.87" y="-184.4" font-family="Helvetica,sans-Serif" font-size="10.00" fill="#3c7fc0">Writes enriched data</text>
</g>
<!-- __c4drill_legend -->
<g id="node5" class="node">
<title>__c4drill_legend</title>
<text xml:space="preserve" text-anchor="start" x="333.11" y="-247.4" font-family="Helvetica,sans-Serif" font-size="10.00" fill="#073b6f">person / system</text>
<text xml:space="preserve" text-anchor="start" x="333.11" y="-233.4" font-family="Helvetica,sans-Serif" font-size="10.00" fill="#3c7fc0">container</text>
<text xml:space="preserve" text-anchor="start" x="333.11" y="-219.4" font-family="Helvetica,sans-Serif" font-size="10.00" fill="#78a8d8">component</text>
</g>
</g>
</svg>
