<?xml version="1.0" encoding="UTF-8" standalone="no"?>
<!DOCTYPE svg PUBLIC "-//W3C//DTD SVG 1.1//EN"
 "http://www.w3.org/Graphics/SVG/1.1/DTD/svg11.dtd">
<!-- Generated by graphviz version 15.1.1 (20260805.0921)
 -->
<!-- Pages: 1 -->
<svg width="551pt" height="339pt"
 viewBox="0.00 0.00 551.00 339.00" xmlns="http://www.w3.org/2000/svg" xmlns:xlink="http://www.w3.org/1999/xlink">
<g id="graph0" class="graph" transform="scale(1 1) rotate(0) translate(4 335.2)">
<polygon fill="white" stroke="none" points="-4,4 -4,-335.2 547.03,-335.2 547.03,4 -4,4"/>
<g id="a_graph0_4"><a xlink:href="../../cloud-system.svg" xlink:title="&lt;TABLE&gt;">
<text xml:space="preserve" text-anchor="start" x="203.16" y="-319.2" font-family="Helvetica,sans-Serif" text-decoration="underline" font-size="10.00" fill="#666666">Cloud System</text>
</a>
</g>
<text xml:space="preserve" text-anchor="start" x="265.4" y="-317.2" font-family="Helvetica,sans-Serif" font-size="10.00" fill="#666666">→</text>
<g id="a_graph0_5"><a xlink:href="../amazon.svg" xlink:title="&lt;TABLE&gt;">
<text xml:space="preserve" text-anchor="start" x="273.74" y="-319.2" font-family="Helvetica,sans-Serif" text-decoration="underline" font-size="10.00" fill="#666666">Amazon</text>
</a>
</g>
<text xml:space="preserve" text-anchor="start" x="310.42" y="-317.2" font-family="Helvetica,sans-Serif" font-size="10.00" fill="#666666">→</text>
<text xml:space="preserve" text-anchor="start" x="318.76" y="-317.2" font-family="Helvetica,sans-Serif" font-size="10.00" fill="#666666">SQS</text>
<text xml:space="preserve" text-anchor="start" x="246.61" y="-301.2" font-family="Helvetica,sans-Serif" font-size="14.00">amazon</text>
<g id="clust1" class="cluster">
<title>cluster___content</title>
</g>
<g id="clust2" class="cluster">
<title>cluster_amazon.sqs</title>
<path fill="none" stroke="#3c7fc0" d="M28,-16C28,-16 413,-16 413,-16 419,-16 425,-22 425,-28 425,-28 425,-170.4 425,-170.4 425,-176.4 419,-182.4 413,-182.4 413,-182.4 28,-182.4 28,-182.4 22,-182.4 16,-176.4 16,-170.4 16,-170.4 16,-28 16,-28 16,-22 22,-16 28,-16"/>
<text xml:space="preserve" text-anchor="start" x="205.72" y="-166.8" font-family="Helvetica,sans-Serif" font-weight="bold" font-size="14.00" fill="#3c7fc0">SQS</text>
<text xml:space="preserve" text-anchor="start" x="150.86" y="-147.6" font-family="Helvetica,sans-Serif" font-size="14.00" fill="#3c7fc0">Simple Queue Service</text>
</g>
<!-- cloud -->
<g id="node1" class="node">
<title>cloud</title>
<g id="a_node1"><a xlink:href="../cloud.svg" xlink:title="&lt;TABLE&gt;">
<path fill="none" stroke="#073b6f" d="M170.4,-275.4C170.4,-275.4 65.6,-275.4 65.6,-275.4 59.6,-275.4 53.6,-269.4 53.6,-263.4 53.6,-263.4 53.6,-251.4 53.6,-251.4 53.6,-245.4 59.6,-239.4 65.6,-239.4 65.6,-239.4 170.4,-239.4 170.4,-239.4 176.4,-239.4 182.4,-245.4 182.4,-251.4 182.4,-251.4 182.4,-263.4 182.4,-263.4 182.4,-269.4 176.4,-275.4 170.4,-275.4"/>
<text xml:space="preserve" text-anchor="start" x="61.6" y="-254.2" font-family="Helvetica,sans-Serif" font-weight="bold" font-size="14.00" fill="#073b6f">Cloud System 🔍</text>
</a>
</g>
</g>
<!-- amazon.sqs.queue1 -->
<g id="node3" class="node">
<title>amazon.sqs.queue1</title>
<path d="M34.62,-107.60 L201.38,-107.60 A10.22,29.20 0 0,1 201.38,-49.20 L34.62,-49.20 A10.22,29.20 0 0,1 34.62,-107.60 Z M201.38,-107.60 A10.22,29.20 0 0,0 201.38,-49.20" fill="none" stroke="#78a8d8"/>
<text xml:space="preserve" text-anchor="start" x="86.49" y="-92" font-family="Helvetica,sans-Serif" font-weight="bold" font-size="14.00" fill="#78a8d8">Raw Data</text>
<text xml:space="preserve" text-anchor="start" x="82.59" y="-72.8" font-family="Helvetica,sans-Serif" font-size="14.00" fill="#78a8d8">Queue with</text>
<text xml:space="preserve" text-anchor="start" x="91.15" y="-56" font-family="Helvetica,sans-Serif" font-size="14.00" fill="#78a8d8">raw data</text>
</g>
<!-- cloud&#45;&gt;amazon.sqs.queue1 -->
<g id="edge2" class="edge">
<title>cloud&#45;&gt;amazon.sqs.queue1</title>
<path fill="none" stroke="#073b6f" d="M118,-239.11C118,-211.44 118,-156.5 118,-118.86"/>
<polygon fill="#073b6f" stroke="#073b6f" points="121.5,-119.3 118,-109.3 114.5,-119.3 121.5,-119.3"/>
<text xml:space="preserve" text-anchor="start" x="118" y="-192.4" font-family="Helvetica,sans-Serif" font-size="10.00" fill="#073b6f">Publishes events</text>
</g>
<!-- amazon.lambdas -->
<g id="node2" class="node">
<title>amazon.lambdas</title>
<g id="a_node2"><a xlink:href="lambdas.svg" xlink:title="&lt;TABLE&gt;">
<path fill="none" stroke="#3c7fc0" d="M352.86,-278.2C352.86,-278.2 237.14,-278.2 237.14,-278.2 231.14,-278.2 225.14,-272.2 225.14,-266.2 225.14,-266.2 225.14,-248.6 225.14,-248.6 225.14,-242.6 231.14,-236.6 237.14,-236.6 237.14,-236.6 352.86,-236.6 352.86,-236.6 358.86,-236.6 364.86,-242.6 364.86,-248.6 364.86,-248.6 364.86,-266.2 364.86,-266.2 364.86,-272.2 358.86,-278.2 352.86,-278.2"/>
<text xml:space="preserve" text-anchor="start" x="254.54" y="-262.6" font-family="Helvetica,sans-Serif" font-weight="bold" font-size="14.00" fill="#3c7fc0">Lambdas 🔍</text>
<text xml:space="preserve" text-anchor="start" x="233.14" y="-243.4" font-family="Helvetica,sans-Serif" font-size="14.00" fill="#3c7fc0">Serverless compute</text>
</a>
</g>
</g>
<!-- amazon.lambdas&#45;&gt;amazon.sqs.queue1 -->
<g id="edge1" class="edge">
<title>amazon.lambdas&#45;&gt;amazon.sqs.queue1</title>
<path fill="none" stroke="#3c7fc0" d="M268.96,-236.17C256.78,-226.35 242.27,-214.16 229.96,-202.4 201.29,-175.01 171.17,-141.62 149.4,-116.54"/>
<polygon fill="#3c7fc0" stroke="#3c7fc0" points="152.23,-114.47 143.05,-109.18 146.93,-119.04 152.23,-114.47"/>
<text xml:space="preserve" text-anchor="start" x="229.96" y="-192.4" font-family="Helvetica,sans-Serif" font-size="10.00" fill="#3c7fc0">Reads raw data</text>
</g>
<!-- amazon.sqs.queue2 -->
<g id="node4" class="node">
<title>amazon.sqs.queue2</title>
<path d="M245.40,-132.80 L400.60,-132.80 A16.00,54.40 0 0,1 400.60,-24.00 L245.40,-24.00 A16.00,54.40 0 0,1 245.40,-132.80 Z M400.60,-132.80 A16.00,54.40 0 0,0 400.60,-24.00" fill="none" stroke="#78a8d8"/>
<text xml:space="preserve" text-anchor="start" x="275.93" y="-117.2" font-family="Helvetica,sans-Serif" font-weight="bold" font-size="14.00" fill="#78a8d8">Enriched Data</text>
<text xml:space="preserve" text-anchor="start" x="286.03" y="-98" font-family="Helvetica,sans-Serif" font-size="14.00" fill="#78a8d8">Filtered and</text>
<text xml:space="preserve" text-anchor="start" x="280.59" y="-81.2" font-family="Helvetica,sans-Serif" font-size="14.00" fill="#78a8d8">preprocessed</text>
<text xml:space="preserve" text-anchor="start" x="285.25" y="-64.4" font-family="Helvetica,sans-Serif" font-size="14.00" fill="#78a8d8">data. Ready</text>
<text xml:space="preserve" text-anchor="start" x="292.66" y="-47.6" font-family="Helvetica,sans-Serif" font-size="14.00" fill="#78a8d8">for further</text>
<text xml:space="preserve" text-anchor="start" x="289.15" y="-30.8" font-family="Helvetica,sans-Serif" font-size="14.00" fill="#78a8d8">processing</text>
</g>
<!-- amazon.lambdas&#45;&gt;amazon.sqs.queue2 -->
<g id="edge3" class="edge">
<title>amazon.lambdas&#45;&gt;amazon.sqs.queue2</title>
<path fill="none" stroke="#3c7fc0" d="M298.16,-236.44C301.68,-214.2 307.55,-177.08 312.7,-144.51"/>
<polygon fill="#3c7fc0" stroke="#3c7fc0" points="316.15,-145.13 314.25,-134.71 309.23,-144.04 316.15,-145.13"/>
<text xml:space="preserve" text-anchor="start" x="304.86" y="-192.4" font-family="Helvetica,sans-Serif" font-size="10.00" fill="#3c7fc0">Writes enriched data</text>
</g>
<!-- __c4drill_legend -->
<g id="node5" class="node">
<title>__c4drill_legend</title>
<polygon fill="none" stroke="#666666" points="448.97,-224.4 448.97,-290.4 535.03,-290.4 535.03,-224.4 448.97,-224.4"/>
<text xml:space="preserve" text-anchor="start" x="451.97" y="-279.4" font-family="Helvetica,sans-Serif" font-weight="bold" font-size="10.00" fill="#666666">legend</text>
<text xml:space="preserve" text-anchor="start" x="451.97" y="-261.4" font-family="Helvetica,sans-Serif" font-size="10.00" fill="#073b6f">system</text>
<text xml:space="preserve" text-anchor="start" x="451.97" y="-245.4" font-family="Helvetica,sans-Serif" font-size="10.00" fill="#3c7fc0">container</text>
<text xml:space="preserve" text-anchor="start" x="451.97" y="-229.4" font-family="Helvetica,sans-Serif" font-size="10.00" fill="#78a8d8">component queue</text>
</g>
</g>
</svg>
