<?xml version="1.0" encoding="UTF-8" standalone="no"?>
<!DOCTYPE svg PUBLIC "-//W3C//DTD SVG 1.1//EN"
 "http://www.w3.org/Graphics/SVG/1.1/DTD/svg11.dtd">
<!-- Generated by graphviz version 15.1.1 (20260805.0921)
 -->
<!-- Pages: 1 -->
<svg width="456pt" height="339pt"
 viewBox="0.00 0.00 456.00 339.00" xmlns="http://www.w3.org/2000/svg" xmlns:xlink="http://www.w3.org/1999/xlink">
<g id="graph0" class="graph" transform="scale(1 1) rotate(0) translate(4 335.2)">
<polygon fill="white" stroke="none" points="-4,4 -4,-335.2 452.03,-335.2 452.03,4 -4,4"/>
<g id="a_graph0_3"><a xlink:href="../../cloud-system.svg" xlink:title="&lt;TABLE&gt;">
<text xml:space="preserve" text-anchor="start" x="155.66" y="-319.2" font-family="Helvetica,sans-Serif" text-decoration="underline" font-size="10.00" fill="#666666">Cloud System</text>
</a>
</g>
<text xml:space="preserve" text-anchor="start" x="217.9" y="-317.2" font-family="Helvetica,sans-Serif" font-size="10.00" fill="#666666">→</text>
<g id="a_graph0_4"><a xlink:href="../amazon.svg" xlink:title="&lt;TABLE&gt;">
<text xml:space="preserve" text-anchor="start" x="226.24" y="-319.2" font-family="Helvetica,sans-Serif" text-decoration="underline" font-size="10.00" fill="#666666">Amazon</text>
</a>
</g>
<text xml:space="preserve" text-anchor="start" x="262.92" y="-317.2" font-family="Helvetica,sans-Serif" font-size="10.00" fill="#666666">→</text>
<text xml:space="preserve" text-anchor="start" x="271.26" y="-317.2" font-family="Helvetica,sans-Serif" font-size="10.00" fill="#666666">SQS</text>
<text xml:space="preserve" text-anchor="start" x="199.11" y="-301.2" font-family="Helvetica,sans-Serif" font-size="14.00">amazon</text>
<g id="clust1" class="cluster">
<title>cluster___content</title>
</g>
<g id="clust2" class="cluster">
<title>cluster_amazon.sqs</title>
<path fill="none" stroke="#3c7fc0" d="M28,-16C28,-16 318,-16 318,-16 324,-16 330,-22 330,-28 330,-28 330,-170.4 330,-170.4 330,-176.4 324,-182.4 318,-182.4 318,-182.4 28,-182.4 28,-182.4 22,-182.4 16,-176.4 16,-170.4 16,-170.4 16,-28 16,-28 16,-22 22,-16 28,-16"/>
<text xml:space="preserve" text-anchor="start" x="158.22" y="-166.8" font-family="Helvetica,sans-Serif" font-weight="bold" font-size="14.00" fill="#3c7fc0">SQS</text>
<text xml:space="preserve" text-anchor="start" x="103.36" y="-147.6" font-family="Helvetica,sans-Serif" font-size="14.00" fill="#3c7fc0">Simple Queue Service</text>
</g>
<!-- cloud -->
<g id="node1" class="node">
<title>cloud</title>
<g id="a_node1"><a xlink:href="../cloud.svg" xlink:title="&lt;TABLE&gt;">
<path fill="none" stroke="#073b6f" d="M132.4,-275.4C132.4,-275.4 27.6,-275.4 27.6,-275.4 21.6,-275.4 15.6,-269.4 15.6,-263.4 15.6,-263.4 15.6,-251.4 15.6,-251.4 15.6,-245.4 21.6,-239.4 27.6,-239.4 27.6,-239.4 132.4,-239.4 132.4,-239.4 138.4,-239.4 144.4,-245.4 144.4,-251.4 144.4,-251.4 144.4,-263.4 144.4,-263.4 144.4,-269.4 138.4,-275.4 132.4,-275.4"/>
<text xml:space="preserve" text-anchor="start" x="23.6" y="-254.2" font-family="Helvetica,sans-Serif" font-weight="bold" font-size="14.00" fill="#073b6f">Cloud System 🔍</text>
</a>
</g>
</g>
<!-- amazon.sqs.queue1 -->
<g id="node3" class="node">
<title>amazon.sqs.queue1</title>
<path d="M34.02,-107.60 A10.22,29.20 0 0,0 34.02,-49.20 L157.98,-49.20 A10.22,29.20 0 0,0 157.98,-107.60 A10.22,29.20 0 1,1 157.98,-107.60 Z" fill="none" stroke="#78a8d8"/>
<text xml:space="preserve" text-anchor="start" x="49.32" y="-89.6" font-family="Helvetica,sans-Serif" font-size="14.00" fill="#78a8d8">═╦╩═╦═══</text>
<text xml:space="preserve" text-anchor="start" x="64.49" y="-75.2" font-family="Helvetica,sans-Serif" font-weight="bold" font-size="14.00" fill="#78a8d8">Raw Data</text>
<text xml:space="preserve" text-anchor="start" x="31.8" y="-56" font-family="Helvetica,sans-Serif" font-size="14.00" fill="#78a8d8">Queue with raw data</text>
</g>
<!-- cloud&#45;&gt;amazon.sqs.queue1 -->
<g id="edge1" class="edge">
<title>cloud&#45;&gt;amazon.sqs.queue1</title>
<path fill="none" stroke="#073b6f" d="M63.94,-239.09C53.97,-226.27 43.71,-208.04 47.4,-190.4 52.67,-165.21 64,-138.75 74.4,-117.98"/>
<polygon fill="#073b6f" stroke="#073b6f" points="77.39,-119.82 78.86,-109.32 71.17,-116.61 77.39,-119.82"/>
<text xml:space="preserve" text-anchor="start" x="47.4" y="-192.4" font-family="Helvetica,sans-Serif" font-size="10.00" fill="#073b6f">Publishes events</text>
</g>
<!-- amazon.lambdas -->
<g id="node2" class="node">
<title>amazon.lambdas</title>
<g id="a_node2"><a xlink:href="lambdas.svg" xlink:title="&lt;TABLE&gt;">
<path fill="none" stroke="#3c7fc0" d="M292.86,-278.2C292.86,-278.2 177.14,-278.2 177.14,-278.2 171.14,-278.2 165.14,-272.2 165.14,-266.2 165.14,-266.2 165.14,-248.6 165.14,-248.6 165.14,-242.6 171.14,-236.6 177.14,-236.6 177.14,-236.6 292.86,-236.6 292.86,-236.6 298.86,-236.6 304.86,-242.6 304.86,-248.6 304.86,-248.6 304.86,-266.2 304.86,-266.2 304.86,-272.2 298.86,-278.2 292.86,-278.2"/>
<text xml:space="preserve" text-anchor="start" x="194.54" y="-262.6" font-family="Helvetica,sans-Serif" font-weight="bold" font-size="14.00" fill="#3c7fc0">Lambdas 🔍</text>
<text xml:space="preserve" text-anchor="start" x="173.14" y="-243.4" font-family="Helvetica,sans-Serif" font-size="14.00" fill="#3c7fc0">Serverless compute</text>
</a>
</g>
</g>
<!-- amazon.lambdas&#45;&gt;amazon.sqs.queue1 -->
<g id="edge2" class="edge">
<title>amazon.lambdas&#45;&gt;amazon.sqs.queue1</title>
<path fill="none" stroke="#3c7fc0" d="M204.76,-236.25C192.14,-226.91 177.89,-215.08 166.96,-202.4 144.96,-176.88 126.22,-143.56 113.54,-118.03"/>
<polygon fill="#3c7fc0" stroke="#3c7fc0" points="116.83,-116.79 109.31,-109.32 110.53,-119.85 116.83,-116.79"/>
<text xml:space="preserve" text-anchor="start" x="166.96" y="-192.4" font-family="Helvetica,sans-Serif" font-size="10.00" fill="#3c7fc0">Reads raw data</text>
</g>
<!-- amazon.sqs.queue2 -->
<g id="node4" class="node">
<title>amazon.sqs.queue2</title>
<path d="M205.11,-132.80 A19.04,54.40 0 0,0 205.11,-24.00 L302.89,-24.00 A19.04,54.40 0 0,0 302.89,-132.80 A19.04,54.40 0 1,1 302.89,-132.80 Z" fill="none" stroke="#78a8d8"/>
<text xml:space="preserve" text-anchor="start" x="207.32" y="-114.8" font-family="Helvetica,sans-Serif" font-size="14.00" fill="#78a8d8">═╦╩═╦═══</text>
<text xml:space="preserve" text-anchor="start" x="206.93" y="-100.4" font-family="Helvetica,sans-Serif" font-weight="bold" font-size="14.00" fill="#78a8d8">Enriched Data</text>
<text xml:space="preserve" text-anchor="start" x="217.03" y="-81.2" font-family="Helvetica,sans-Serif" font-size="14.00" fill="#78a8d8">Filtered and</text>
<text xml:space="preserve" text-anchor="start" x="194.07" y="-64.4" font-family="Helvetica,sans-Serif" font-size="14.00" fill="#78a8d8">preprocessed data.</text>
<text xml:space="preserve" text-anchor="start" x="201.48" y="-47.6" font-family="Helvetica,sans-Serif" font-size="14.00" fill="#78a8d8">Ready for further</text>
<text xml:space="preserve" text-anchor="start" x="220.15" y="-30.8" font-family="Helvetica,sans-Serif" font-size="14.00" fill="#78a8d8">processing</text>
</g>
<!-- amazon.lambdas&#45;&gt;amazon.sqs.queue2 -->
<g id="edge3" class="edge">
<title>amazon.lambdas&#45;&gt;amazon.sqs.queue2</title>
<path fill="none" stroke="#3c7fc0" d="M237.14,-236.44C239.53,-214.2 243.51,-177.08 247.01,-144.51"/>
<polygon fill="#3c7fc0" stroke="#3c7fc0" points="250.47,-145.03 248.06,-134.72 243.51,-144.29 250.47,-145.03"/>
<text xml:space="preserve" text-anchor="start" x="241.69" y="-192.4" font-family="Helvetica,sans-Serif" font-size="10.00" fill="#3c7fc0">Writes enriched data</text>
</g>
<!-- __c4drill_legend -->
<g id="node5" class="node">
<title>__c4drill_legend</title>
<polygon fill="none" stroke="#666666" points="353.97,-224.4 353.97,-290.4 440.03,-290.4 440.03,-224.4 353.97,-224.4"/>
<text xml:space="preserve" text-anchor="start" x="356.97" y="-279.4" font-family="Helvetica,sans-Serif" font-weight="bold" font-size="10.00" fill="#666666">legend</text>
<text xml:space="preserve" text-anchor="start" x="356.97" y="-261.4" font-family="Helvetica,sans-Serif" font-size="10.00" fill="#073b6f">system</text>
<text xml:space="preserve" text-anchor="start" x="356.97" y="-245.4" font-family="Helvetica,sans-Serif" font-size="10.00" fill="#3c7fc0">container</text>
<text xml:space="preserve" text-anchor="start" x="356.97" y="-229.4" font-family="Helvetica,sans-Serif" font-size="10.00" fill="#78a8d8">component queue</text>
</g>
</g>
</svg>
